<svg width="72" height="72" viewBox="0 0 72 72" fill="none" xmlns="http://www.w3.org/2000/svg">
<rect width="72" height="72" rx="36" fill="#E27CB0" fill-opacity="0.2"/>
<path fill-rule="evenodd" clip-rule="evenodd" d="M41.8915 23.4708C41.8303 23.0167 41.4441 22.6667 40.9768 22.6667C40.467 22.6667 40.0537 23.0832 40.0537 23.597V24.6254H31.9575V23.597L31.9491 23.4708C31.8879 23.0167 31.5017 22.6667 31.0344 22.6667C30.5246 22.6667 30.1113 23.0832 30.1113 23.597V24.6485C26.3287 24.909 24 27.3599 24 31.3144V42.5388C24 46.783 26.6111 49.3334 30.795 49.3334H41.2049C45.3937 49.3334 47.9999 46.8257 47.9999 42.6326V31.3144C48.012 27.3585 45.6907 24.9083 41.8999 24.6484V23.597L41.8915 23.4708ZM40.0537 26.4859V27.6786L40.0622 27.8048C40.1233 28.2588 40.5095 28.6088 40.9768 28.6088C41.4866 28.6088 41.8999 28.1923 41.8999 27.6786V26.5134C44.658 26.7429 46.1626 28.4037 46.1537 31.3116V31.8503H25.8461V31.3145C25.8461 28.4084 27.359 26.744 30.1113 26.5136V27.6786L30.1198 27.8048C30.1809 28.2588 30.5671 28.6088 31.0344 28.6088C31.5442 28.6088 31.9575 28.1923 31.9575 27.6786V26.4859H40.0537ZM25.8461 33.7108V42.5388C25.8461 45.7423 27.618 47.4729 30.795 47.4729H41.2048C44.3927 47.4729 46.1537 45.7785 46.1537 42.6327L46.1537 33.7108H25.8461ZM42.4015 37.6244C42.4015 37.1107 41.9883 36.6942 41.4785 36.6942L41.3418 36.7027C40.8913 36.7643 40.544 37.1535 40.544 37.6244C40.544 38.1382 40.9573 38.5547 41.4785 38.5547L41.6037 38.5462C42.0543 38.4846 42.4015 38.0954 42.4015 37.6244ZM36.0171 36.6942C36.5269 36.6942 36.9401 37.1107 36.9401 37.6244C36.9401 38.0954 36.5929 38.4846 36.1423 38.5462L36.0171 38.5547C35.4959 38.5547 35.0826 38.1382 35.0826 37.6244C35.0826 37.1535 35.4299 36.7643 35.8804 36.7027L36.0171 36.6942ZM31.4673 37.6244C31.4673 37.1107 31.054 36.6942 30.5442 36.6942L30.4075 36.7027C29.957 36.7643 29.6097 37.1535 29.6097 37.6244C29.6097 38.1382 30.023 38.5547 30.5328 38.5547L30.6694 38.5462C31.12 38.4846 31.4673 38.0954 31.4673 37.6244ZM41.4785 41.5148C41.9883 41.5148 42.4015 41.9313 42.4015 42.445C42.4015 42.916 42.0543 43.3052 41.6037 43.3668L41.4785 43.3752C40.9573 43.3752 40.544 42.9588 40.544 42.445C40.544 41.9741 40.8913 41.5849 41.3418 41.5233L41.4785 41.5148ZM36.9401 42.445C36.9401 41.9313 36.5269 41.5148 36.0171 41.5148L35.8804 41.5233C35.4299 41.5849 35.0826 41.9741 35.0826 42.445C35.0826 42.9588 35.4959 43.3752 36.0171 43.3752L36.1423 43.3668C36.5929 43.3052 36.9401 42.916 36.9401 42.445ZM30.5442 41.5148C31.054 41.5148 31.4673 41.9313 31.4673 42.445C31.4673 42.916 31.12 43.3052 30.6694 43.3668L30.5328 43.3752C30.023 43.3752 29.6097 42.9588 29.6097 42.445C29.6097 41.9741 29.957 41.5849 30.4075 41.5233L30.5442 41.5148Z" fill="#E27CB0"/>
</svg>
