<svg width="72" height="72" viewBox="0 0 72 72" fill="none" xmlns="http://www.w3.org/2000/svg">
<rect width="72" height="72" rx="36" fill="#765EA6" fill-opacity="0.2"/>
<path fill-rule="evenodd" clip-rule="evenodd" d="M30.416 23.3334H41.5839C45.8637 23.3334 49.3333 26.8816 49.3333 31.2584V32.2472L49.3335 32.2699L49.3333 32.2926V39.3594L49.3335 39.3821L49.3333 39.4048V40.7417C49.3333 45.1185 45.8637 48.6667 41.5839 48.6667H30.416C26.1362 48.6667 22.6666 45.1185 22.6666 40.7417V31.2584C22.6666 26.8816 26.1362 23.3334 30.416 23.3334ZM47.3952 31.2584V31.2789H43.1338L42.8898 31.2858C40.5468 31.4166 38.6863 33.3989 38.6863 35.826C38.6878 38.3374 40.6778 40.3716 43.1332 40.3731H47.3952V40.7417C47.3952 44.0239 44.7933 46.6847 41.5839 46.6847H30.416C27.2066 46.6847 24.6047 44.0239 24.6047 40.7417V31.2584C24.6047 27.9762 27.2066 25.3154 30.416 25.3154H41.5839C44.7933 25.3154 47.3952 27.9762 47.3952 31.2584ZM47.3952 33.2609V38.3911H43.1338L42.9378 38.3833C41.6438 38.2803 40.6252 37.1749 40.6244 35.8254C40.6244 34.4099 41.7479 33.2618 43.1344 33.2609H47.3952ZM44.6946 35.7446C44.6946 35.1973 44.2607 34.7536 43.7255 34.7536H43.3228L43.1913 34.7627C42.7183 34.8283 42.3538 35.2429 42.3538 35.7446C42.3538 36.2919 42.7876 36.7356 43.3228 36.7356H43.7255L43.857 36.7266C44.33 36.661 44.6946 36.2463 44.6946 35.7446ZM37.4409 30.3209C37.4409 29.7735 37.007 29.3298 36.4718 29.3298H29.496L29.3645 29.3389C28.8915 29.4045 28.527 29.8191 28.527 30.3209C28.527 30.8682 28.9608 31.3119 29.496 31.3119H36.4718L36.6033 31.3028C37.0763 31.2372 37.4409 30.8226 37.4409 30.3209Z" fill="#765EA6"/>
</svg>
