<svg width="72" height="72" viewBox="0 0 72 72" fill="none" xmlns="http://www.w3.org/2000/svg">
<rect width="72" height="72" rx="36" fill="#FCCE36" fill-opacity="0.2"/>
<path fill-rule="evenodd" clip-rule="evenodd" d="M36.0773 22.667C31.3952 22.6482 27.0474 25.076 24.6141 29.0668C22.1806 33.0581 22.0172 38.0302 24.1836 42.1722L24.4287 42.65C24.5224 42.8256 24.5404 43.0151 24.4861 43.1902C24.1361 44.1153 23.8285 45.1143 23.5831 46.1293L23.557 46.3479C23.557 47.3685 24.1016 48.0697 25.1823 48.0457L25.3623 48.024C26.344 47.8072 27.3108 47.5279 28.2568 47.1878C28.3822 47.1561 28.5876 47.1684 28.773 47.2443L29.683 47.7593C29.6851 47.7656 29.6866 47.7704 29.6961 47.7759L29.7572 47.7973C34.6573 50.3738 40.6417 49.663 44.7996 46.0105C48.9583 42.3575 50.4266 36.5201 48.4901 31.3385C46.5538 26.1574 41.6154 22.7077 36.0773 22.667ZM35.69 24.532L36.0645 24.5262C40.8308 24.5624 45.0812 27.5315 46.7474 31.9898C48.4134 36.4476 47.1501 41.4694 43.5718 44.6128L43.2782 44.8621C39.8169 47.704 35.011 48.2768 30.977 46.329L30.5933 46.1368L30.6098 46.1389L30.5855 46.1323L30.0224 45.8092C29.8196 45.6946 29.6588 45.6078 29.5292 45.5454C28.9116 45.2908 28.2847 45.2532 27.6951 45.4156L27.137 45.6073C26.7681 45.7292 26.405 45.8392 26.0437 45.9388L25.5169 46.0764L25.3914 46.5665C25.619 45.6256 25.9041 44.6995 26.2452 43.7934C26.4647 43.091 26.3976 42.3873 26.0768 41.7869L25.8355 41.3165C23.9684 37.7465 24.1089 33.4692 26.2026 30.0353C28.2312 26.7083 31.8066 24.6431 35.69 24.532ZM28.6328 36.0003C28.6328 35.16 29.3145 34.4794 30.1546 34.4794C30.9948 34.4794 31.6765 35.16 31.6765 36.0003C31.6765 36.8405 30.9948 37.5211 30.1546 37.5211C29.3145 37.5211 28.6328 36.8405 28.6328 36.0003ZM34.5487 36.0003C34.5487 35.16 35.2303 34.4794 36.0705 34.4794C36.9106 34.4794 37.5923 35.16 37.5923 36.0003C37.5923 36.8405 36.9106 37.5211 36.0705 37.5211C35.2303 37.5211 34.5487 36.8405 34.5487 36.0003ZM41.9863 34.4794C41.1462 34.4794 40.4645 35.16 40.4645 36.0003C40.4645 36.8405 41.1462 37.5211 41.9863 37.5211C42.8265 37.5211 43.5081 36.8405 43.5081 36.0003C43.5081 35.16 42.8265 34.4794 41.9863 34.4794Z" fill="#FCCE36"/>
</svg>
