<svg width="72" height="72" viewBox="0 0 72 72" fill="none" xmlns="http://www.w3.org/2000/svg">
<rect width="72" height="72" rx="36" fill="#45BCC8" fill-opacity="0.2"/>
<path fill-rule="evenodd" clip-rule="evenodd" d="M30.6847 22.6667H26.6343C24.4412 22.6667 22.6667 24.4567 22.6667 26.6608V30.7463C22.6667 32.9495 24.4416 34.7403 26.6343 34.7403H30.6847C32.8774 34.7403 34.6523 32.9495 34.6523 30.7463V26.6608C34.6523 24.4567 32.8778 22.6667 30.6847 22.6667ZM26.6343 24.5272H30.6847C31.8467 24.5272 32.7918 25.4806 32.7918 26.6607V30.7462C32.7918 31.9256 31.8462 32.8798 30.6847 32.8798H26.6343C25.4728 32.8798 24.5271 31.9256 24.5271 30.7462V26.6607C24.5271 25.4806 25.4723 24.5272 26.6343 24.5272ZM45.367 22.6667H41.3154C39.1223 22.6667 37.3477 24.4567 37.3477 26.6608V30.7463C37.3477 32.9495 39.1226 34.7403 41.3154 34.7403H45.367C47.5587 34.7403 49.3334 32.9492 49.3334 30.7463V26.6608C49.3334 24.4569 47.5591 22.6667 45.367 22.6667ZM41.3154 24.5272H45.367C46.5278 24.5272 47.4729 25.4807 47.4729 26.6607V30.7462C47.4729 31.9255 46.5273 32.8798 45.367 32.8798H41.3154C40.1539 32.8798 39.2082 31.9256 39.2082 30.7462V26.6607C39.2082 25.4806 40.1534 24.5272 41.3154 24.5272ZM26.6343 37.2599H30.6847C32.878 37.2599 34.6523 39.0501 34.6523 41.2552V45.3394C34.6523 47.5435 32.8778 49.3334 30.6847 49.3334H26.6343C24.4412 49.3334 22.6667 47.5435 22.6667 45.3394V41.2552C22.6667 39.0501 24.4409 37.2599 26.6343 37.2599ZM30.6847 39.1203H26.6343C25.4722 39.1203 24.5271 40.0738 24.5271 41.2552V45.3394C24.5271 46.5195 25.4723 47.4729 26.6343 47.4729H30.6847C31.8467 47.4729 32.7918 46.5195 32.7918 45.3394V41.2552C32.7918 40.0738 31.8468 39.1203 30.6847 39.1203ZM45.367 37.2599H41.3154C39.122 37.2599 37.3477 39.0501 37.3477 41.2552V45.3394C37.3477 47.5435 39.1223 49.3334 41.3154 49.3334H45.367C47.5591 49.3334 49.3334 47.5432 49.3334 45.3394V41.2552C49.3334 39.0503 47.5594 37.2599 45.367 37.2599ZM41.3154 39.1203H45.367C46.528 39.1203 47.4729 40.074 47.4729 41.2552V45.3394C47.4729 46.5194 46.5278 47.4729 45.367 47.4729H41.3154C40.1534 47.4729 39.2082 46.5195 39.2082 45.3394V41.2552C39.2082 40.0738 40.1532 39.1203 41.3154 39.1203Z" fill="#45BCC8"/>
</svg>
