<svg width="72" height="72" viewBox="0 0 72 72" fill="none" xmlns="http://www.w3.org/2000/svg">
<rect width="72" height="72" rx="36" fill="#765EA6" fill-opacity="0.2"/>
<path fill-rule="evenodd" clip-rule="evenodd" d="M42.4282 26.1086C42.4282 24.2077 43.974 22.6667 45.8808 22.6667C47.7875 22.6667 49.3333 24.2077 49.3333 26.1086C49.3333 28.0095 47.7875 29.5504 45.8808 29.5504C43.974 29.5504 42.4282 28.0095 42.4282 26.1086ZM47.3952 26.1086C47.3952 25.2747 46.7172 24.5988 45.8807 24.5988C45.0443 24.5988 44.3663 25.2747 44.3663 26.1086C44.3663 26.9424 45.0443 27.6184 45.8807 27.6184C46.7172 27.6184 47.3952 26.9424 47.3952 26.1086ZM40.7036 32.7204C41.0314 32.2987 41.6401 32.2217 42.0631 32.5485C42.4477 32.8455 42.5465 33.374 42.315 33.7845L42.2356 33.9037L38.4512 38.7729C38.1518 39.1581 37.6185 39.2554 37.2063 39.0211L37.0866 38.9409L33.4446 36.0892L30.1748 40.3265C29.8782 40.7109 29.3484 40.8112 28.9358 40.5818L28.8159 40.503C28.4303 40.2073 28.3298 39.6791 28.5599 39.2679L28.6388 39.1483L32.506 34.1378C32.8048 33.7506 33.3395 33.6521 33.7526 33.8867L33.8726 33.9672L37.5157 36.8208L40.7036 32.7204ZM40.2981 24.7174C40.2981 24.1839 39.8642 23.7514 39.329 23.7514H29.939L29.6364 23.7564C25.4336 23.8972 22.6666 26.9742 22.6666 31.3432V41.7534L22.6713 42.0643C22.8008 46.3837 25.6358 49.3334 29.939 49.3334H41.0557L41.3584 49.3284C45.5627 49.1881 48.3281 46.1203 48.3281 41.7534V32.6872L48.3192 32.5561C48.2551 32.0846 47.8496 31.7212 47.3591 31.7212C46.8239 31.7212 46.39 32.1537 46.39 32.6872V41.7534L46.3847 42.0532C46.2676 45.3158 44.23 47.4014 41.0557 47.4014H29.939L29.6512 47.3957C26.5213 47.2712 24.6046 45.1055 24.6046 41.7534V31.3432L24.61 31.0431C24.7273 27.7771 26.7675 25.6834 29.939 25.6834H39.329L39.4605 25.6746C39.9335 25.6106 40.2981 25.2065 40.2981 24.7174Z" fill="#765EA6"/>
</svg>
