<svg width="72" height="72" viewBox="0 0 72 72" fill="none" xmlns="http://www.w3.org/2000/svg">
<rect width="72" height="72" rx="36" fill="#FCCE36" fill-opacity="0.2"/>
<path fill-rule="evenodd" clip-rule="evenodd" d="M35.917 24.5835C32.5096 24.5835 29.7727 27.3204 29.7727 30.7278C29.7727 34.1362 32.5094 36.8734 35.917 36.8734C39.3246 36.8734 42.0613 34.1362 42.0613 30.7278C42.0613 27.3204 39.3244 24.5835 35.917 24.5835ZM35.917 26.5835C38.2198 26.5835 40.0613 28.425 40.0613 30.7278C40.0613 33.0317 38.22 34.8734 35.917 34.8734C33.614 34.8734 31.7727 33.0317 31.7727 30.7278C31.7727 28.425 33.6142 26.5835 35.917 26.5835ZM28.3867 25.8392C28.939 25.8392 29.3867 26.2869 29.3867 26.8392C29.3867 27.3915 28.939 27.8392 28.3867 27.8392C26.8022 27.8392 25.5172 29.1237 25.5172 30.7075C25.5172 32.2914 26.8022 33.5759 28.3867 33.5759C28.939 33.5759 29.3867 34.0236 29.3867 34.5759C29.3867 35.1281 28.939 35.5759 28.3867 35.5759C25.6978 35.5759 23.5172 33.3961 23.5172 30.7075C23.5172 28.0189 25.6978 25.8392 28.3867 25.8392ZM48.3295 30.7075C48.3295 28.0189 46.1488 25.8392 43.46 25.8392C42.9077 25.8392 42.46 26.2869 42.46 26.8392C42.46 27.3915 42.9077 27.8392 43.46 27.8392C45.0445 27.8392 46.3295 29.1237 46.3295 30.7075C46.3295 32.2914 45.0445 33.5759 43.46 33.5759C42.9077 33.5759 42.46 34.0236 42.46 34.5759C42.46 35.1281 42.9077 35.5759 43.46 35.5759C46.1488 35.5759 48.3295 33.3961 48.3295 30.7075ZM47.3276 38.0733C46.6873 37.9289 46.0031 37.8301 45.3074 37.7821C44.7564 37.7441 44.2789 38.1599 44.241 38.7109C44.203 39.2619 44.6188 39.7393 45.1698 39.7773C45.7651 39.8184 46.3486 39.9026 46.9159 40.0303C47.7981 40.2034 48.3733 40.4904 48.5161 40.7895C48.6235 41.0154 48.6235 41.2809 48.5151 41.5094C48.3742 41.8055 47.8038 42.091 46.9341 42.2699C46.3931 42.3811 46.0447 42.9098 46.156 43.4508C46.2672 43.9918 46.7959 44.3401 47.3369 44.2289C48.7745 43.9333 49.8276 43.4061 50.3216 42.3675C50.6879 41.5952 50.6879 40.6996 50.3217 39.9294C49.8241 38.8868 48.7529 38.3524 47.3276 38.0733ZM27.6053 38.7109C27.5673 38.1599 27.0899 37.7441 26.5389 37.7821C25.8432 37.8301 25.1589 37.9289 24.4912 38.0791L24.216 38.1373C22.9525 38.426 21.9886 38.9566 21.5259 39.9293C21.1581 40.6988 21.1581 41.596 21.5263 42.3683C22.0182 43.4059 23.0712 43.9331 24.5094 44.2289C25.0503 44.3401 25.5791 43.9918 25.6903 43.4508C25.8015 42.9098 25.4532 42.3811 24.9122 42.2699C24.0428 42.0911 23.4729 41.8058 23.3325 41.5095C23.2231 41.2801 23.2231 41.0161 23.3312 40.79C23.4738 40.4902 24.0484 40.2034 24.9029 40.0361L25.3472 39.9451C25.7901 39.8632 26.23 39.8081 26.6765 39.7773C27.2275 39.7393 27.6433 39.2619 27.6053 38.7109ZM26.8893 42.913C26.8893 39.7318 30.1799 38.613 35.9169 38.613L36.3233 38.6149C41.8206 38.6665 44.9444 39.7879 44.9444 42.8898C44.9444 45.9187 41.9583 47.0785 36.7195 47.1821L35.9169 47.1898C30.1668 47.1898 26.8893 46.0907 26.8893 42.913ZM42.9444 42.8898C42.9444 41.4091 40.5704 40.613 35.9169 40.613C31.2679 40.613 28.8893 41.4217 28.8893 42.913C28.8893 44.3939 31.2626 45.1898 35.9169 45.1898C40.5644 45.1898 42.9444 44.3804 42.9444 42.8898Z" fill="#FCCE36"/>
</svg>
