<svg width="72" height="72" viewBox="0 0 72 72" fill="none" xmlns="http://www.w3.org/2000/svg">
<rect width="72" height="72" rx="36" fill="#FCCE36" fill-opacity="0.2"/>
<path fill-rule="evenodd" clip-rule="evenodd" d="M39.4756 22.6826C39.4182 22.6723 39.3591 22.667 39.2987 22.667C39.2383 22.667 39.1791 22.6723 39.1217 22.6826H30.7783C27.4619 22.6826 24.6663 25.373 24.6663 28.6546V42.9386C24.6663 46.406 27.3391 49.1533 30.7783 49.1533H41.4303C44.7013 49.1533 47.4023 46.2707 47.4023 42.9386V30.7173C47.4023 30.4591 47.3024 30.211 47.1236 30.0247L40.3703 22.9901C40.1817 22.7936 39.9212 22.6826 39.6489 22.6826H39.4756ZM38.2987 24.6815L30.7783 24.6826C28.5496 24.6826 26.6663 26.4951 26.6663 28.6546V42.9386C26.6663 45.3136 28.4561 47.1533 30.7783 47.1533H41.4303C43.5666 47.1533 45.4023 45.1942 45.4023 42.9386L45.4014 31.9778L44.2341 31.9818C43.7892 31.9812 43.2832 31.9803 42.7206 31.979C40.3612 31.974 38.4357 30.1247 38.3057 27.7968L38.2987 27.5457V24.6815ZM44.3069 29.9788L42.7249 29.979C41.3843 29.9762 40.2987 28.8876 40.2987 27.5457V25.8036L44.3069 29.9788ZM39.0453 39.7439C39.5976 39.7439 40.0453 40.1916 40.0453 40.7439C40.0453 41.2501 39.6691 41.6685 39.181 41.7347L39.0453 41.7439H31.8493C31.2971 41.7439 30.8493 41.2961 30.8493 40.7439C30.8493 40.2376 31.2255 39.8192 31.7136 39.753L31.8493 39.7439H39.0453ZM37.3233 34.1408C37.3233 33.5886 36.8756 33.1408 36.3233 33.1408H31.8487L31.713 33.15C31.2249 33.2162 30.8487 33.6346 30.8487 34.1408C30.8487 34.6931 31.2964 35.1408 31.8487 35.1408H36.3233L36.459 35.1317C36.9471 35.0655 37.3233 34.6471 37.3233 34.1408Z" fill="#FCCE36"/>
</svg>
