<svg width="72" height="72" viewBox="0 0 72 72" fill="none" xmlns="http://www.w3.org/2000/svg">
<rect width="72" height="72" rx="36" fill="#765EA6" fill-opacity="0.2"/>
<path d="M26.083 26.3999C24.501 26.3999 23.2 27.7188 23.2 29.3261V42.6737C23.2 44.281 24.5009 45.5999 26.083 45.5999H45.9251C47.5071 45.5999 48.7999 44.281 48.7999 42.6747V29.3264C48.7999 27.7201 47.5069 26.4012 45.9251 26.4012L26.083 26.3999ZM26.083 28.0244H45.9251C46.6481 28.0244 47.2001 28.591 47.2001 29.3251V30.844H24.8001V29.3261C24.8001 28.592 25.3591 28.0255 26.0831 28.0255L26.083 28.0244ZM24.8 32.4686H47.2V33.8403H24.8V32.4686ZM24.8 35.4668H47.2V42.6737C47.2 43.4078 46.648 43.9743 45.925 43.9743L26.083 43.9753C25.36 43.9753 24.8 43.4088 24.8 42.6747L24.8 35.4668ZM39.819 38.1827C39.606 38.1817 39.401 38.268 39.25 38.4203C39.099 38.5736 39.015 38.7818 39.016 38.9981V42.0137C39.017 42.4625 39.377 42.8249 39.819 42.8229H45.0161C45.4551 42.8219 45.8111 42.4604 45.8131 42.0137V38.9981C45.8141 38.5493 45.4571 38.1848 45.0161 38.1828L39.819 38.1827ZM40.616 39.8073H44.2131V41.1983H40.616V39.8073Z" fill="#765EA6"/>
</svg>
