<svg width="72" height="72" viewBox="0 0 72 72" fill="none" xmlns="http://www.w3.org/2000/svg">
<rect width="72" height="72" rx="36" fill="#45BCC8" fill-opacity="0.2"/>
<path fill-rule="evenodd" clip-rule="evenodd" d="M36.3843 25.3397L36.0027 25.3333C30.4815 25.3333 25.5057 29.2308 22.7479 35.6078C22.6396 35.8582 22.6396 36.1418 22.7479 36.3922L22.939 36.8224C25.6619 42.7908 30.3673 46.4858 35.6157 46.6602L35.9974 46.6666C41.5186 46.6666 46.4943 42.7692 49.2521 36.3922C49.3618 36.1386 49.3604 35.8512 49.2482 35.5987L49.0625 35.1808C46.333 29.2012 41.6256 25.5139 36.3843 25.3397ZM36.012 27.3192L36.3306 27.3261L36.6866 27.3446C40.9496 27.6464 44.8701 30.8074 47.2387 35.9988L47.2263 36.0308C44.7983 41.3339 40.7426 44.5137 36.3452 44.6733L36.0054 44.6784L35.6626 44.6738L35.3075 44.6553C31.177 44.3627 27.3685 41.3792 24.9855 36.4796L24.76 35.9988L24.9688 35.5549C27.4816 30.3642 31.5887 27.3203 36.012 27.3192ZM35.9994 30.8179C33.1188 30.8179 30.7847 33.1375 30.7847 36.0002C30.7847 38.8619 33.1191 41.1812 35.9994 41.1812C38.8798 41.1812 41.2154 38.8618 41.2154 36.0002C41.2154 33.1376 38.88 30.8179 35.9994 30.8179ZM35.9994 32.805C37.7756 32.805 39.2154 34.2352 39.2154 36.0002C39.2154 37.7641 37.7754 39.1941 35.9994 39.1941C34.2236 39.1941 32.7847 37.7645 32.7847 36.0002C32.7847 34.2348 34.2235 32.805 35.9994 32.805Z" fill="#45BCC8"/>
</svg>
