<svg width="72" height="72" viewBox="0 0 72 72" fill="none" xmlns="http://www.w3.org/2000/svg">
<rect width="72" height="72" rx="36" fill="#765EA6" fill-opacity="0.2"/>
<path fill-rule="evenodd" clip-rule="evenodd" d="M37.8979 22.668C37.397 22.6488 36.8991 22.8287 36.5239 23.1685C36.2251 23.4391 36.0222 23.7949 35.9432 24.1843L35.9137 24.4039L35.907 24.5988L36.4993 33.2979C36.5732 34.4067 37.5492 35.2509 38.685 35.1867L47.5456 34.6089C48.0642 34.5715 48.5394 34.3365 48.8731 33.9556C49.1389 33.6524 49.2988 33.2749 49.3309 32.878L49.3339 32.6089L49.3211 32.4544C48.4043 26.9355 43.6118 22.8297 37.8979 22.668ZM37.8821 24.5986L38.1721 24.6124C42.683 24.8858 46.4428 28.1069 47.3144 32.4446L47.3581 32.6846L38.5623 33.26C38.5178 33.2624 38.472 33.2229 38.4686 33.1708L37.8821 24.5986ZM31.7087 27.7937C32.6695 27.6624 33.6148 28.166 33.9972 29.0141C34.1141 29.2464 34.1844 29.4985 34.2046 29.7613L34.7227 37.0793C34.7296 37.1796 34.7771 37.273 34.8547 37.3389C34.9128 37.3883 34.9843 37.4192 35.0642 37.4282L35.1468 37.4298L42.579 36.9821C43.1825 36.9466 43.7742 37.1566 44.214 37.5625C44.6539 37.9683 44.9027 38.5339 44.8994 39.1882C44.5689 44.0048 41.0309 48.0315 36.2122 49.0752C31.3936 50.119 26.4484 47.9298 24.0773 43.7131C23.4433 42.626 23.0159 41.437 22.8186 40.2331L22.7554 39.7811C22.7006 39.4427 22.6711 39.1009 22.6669 38.7726L22.671 38.4495C22.6847 33.4206 26.2156 29.072 31.1843 27.8991L31.5253 27.824L31.7087 27.7937ZM32.022 29.7042L31.9097 29.717L31.6051 29.7858C27.6471 30.7397 24.8084 34.1471 24.6507 38.1614L24.6439 38.4881C24.6344 38.7367 24.6435 38.9856 24.6734 39.2504L24.7105 39.521C24.843 40.66 25.2107 41.7608 25.799 42.7696C27.7552 46.2485 31.8224 48.0489 35.7855 47.1905C39.7485 46.3321 42.6583 43.0204 42.9279 39.1219C42.928 39.0632 42.9033 39.007 42.8596 38.9667C42.8305 38.9398 42.7947 38.9216 42.7568 38.9135L42.6988 38.909L35.2788 39.3559C34.6526 39.4004 34.0341 39.199 33.5602 38.7962C33.0862 38.3934 32.7959 37.8225 32.7538 37.2133L32.2362 29.9016C32.2352 29.8895 32.2319 29.8776 32.2092 29.8307C32.1755 29.7559 32.1021 29.7084 32.022 29.7042Z" fill="#765EA6"/>
</svg>
