<svg width="72" height="72" viewBox="0 0 72 72" fill="none" xmlns="http://www.w3.org/2000/svg">
<rect width="72" height="72" rx="36" fill="#FCCE36" fill-opacity="0.2"/>
<path fill-rule="evenodd" clip-rule="evenodd" d="M48.9395 26.1219C49.3549 24.2477 47.612 22.5565 45.7249 23.1026L24.8495 29.1769L24.6481 29.2439C22.6886 29.9813 22.388 32.7103 24.2233 33.8401L32.8573 39.1546L38.0517 47.76L38.1684 47.9377C39.386 49.6437 42.0824 49.2305 42.6971 47.1625L48.8906 26.3098L48.9395 26.1219ZM46.3795 25.0041C46.7646 24.9628 47.0936 25.3373 46.9737 25.7395L40.78 46.5928L40.7393 46.6951C40.5458 47.0757 39.9981 47.1145 39.764 46.7266L34.8466 38.5813L41.85 31.5328L41.9464 31.4203C42.2356 31.0279 42.2015 30.4725 41.8453 30.1186L41.7328 30.0222C41.3403 29.733 40.7849 29.7671 40.4311 30.1233L33.4373 37.1626L25.2717 32.1369L25.1835 32.0707C24.8664 31.7819 24.9731 31.2236 25.4077 31.0975L46.2823 25.0234L46.3795 25.0041Z" fill="#FCCE36"/>
</svg>
