<svg width="72" height="72" viewBox="0 0 72 72" fill="none" xmlns="http://www.w3.org/2000/svg">
<rect width="72" height="72" rx="36" fill="#45BCC8" fill-opacity="0.2"/>
<path fill-rule="evenodd" clip-rule="evenodd" d="M30.6847 22.6666H26.6343C24.4412 22.6666 22.6667 24.4566 22.6667 26.6607V30.7461C22.6667 32.9493 24.4416 34.7402 26.6343 34.7402H30.6847C32.8774 34.7402 34.6523 32.9493 34.6523 30.7461V26.6607C34.6523 24.4566 32.8778 22.6666 30.6847 22.6666ZM26.6343 24.5271H30.6847C31.8467 24.5271 32.7918 25.4804 32.7918 26.6606V30.7461C32.7918 31.9255 31.8462 32.8797 30.6847 32.8797H26.6343C25.4728 32.8797 24.5271 31.9255 24.5271 30.7461V26.6606C24.5271 25.4804 25.4723 24.5271 26.6343 24.5271ZM45.367 22.6666H41.3154C39.1223 22.6666 37.3477 24.4566 37.3477 26.6607V30.7461C37.3477 32.9493 39.1226 34.7402 41.3154 34.7402H45.367C47.5587 34.7402 49.3334 32.9491 49.3334 30.7461V26.6607C49.3334 24.4568 47.5591 22.6666 45.367 22.6666ZM41.3154 24.5271H45.367C46.5278 24.5271 47.4729 25.4806 47.4729 26.6606V30.7461C47.4729 31.9254 46.5273 32.8797 45.367 32.8797H41.3154C40.1539 32.8797 39.2082 31.9255 39.2082 30.7461V26.6606C39.2082 25.4804 40.1534 24.5271 41.3154 24.5271ZM26.6343 37.2598H30.6847C32.878 37.2598 34.6523 39.0499 34.6523 41.2551V45.3393C34.6523 47.5434 32.8778 49.3333 30.6847 49.3333H26.6343C24.4412 49.3333 22.6667 47.5434 22.6667 45.3393V41.2551C22.6667 39.0499 24.4409 37.2598 26.6343 37.2598ZM30.6847 39.1202H26.6343C25.4722 39.1202 24.5271 40.0737 24.5271 41.255V45.3392C24.5271 46.5194 25.4723 47.4728 26.6343 47.4728H30.6847C31.8467 47.4728 32.7918 46.5194 32.7918 45.3392V41.255C32.7918 40.0737 31.8468 39.1202 30.6847 39.1202ZM45.367 37.2598H41.3154C39.122 37.2598 37.3477 39.0499 37.3477 41.2551V45.3393C37.3477 47.5434 39.1223 49.3333 41.3154 49.3333H45.367C47.5591 49.3333 49.3334 47.5431 49.3334 45.3393V41.2551C49.3334 39.0502 47.5594 37.2598 45.367 37.2598ZM41.3154 39.1202H45.367C46.528 39.1202 47.4729 40.0739 47.4729 41.255V45.3392C47.4729 46.5193 46.5278 47.4728 45.367 47.4728H41.3154C40.1534 47.4728 39.2082 46.5194 39.2082 45.3392V41.255C39.2082 40.0737 40.1532 39.1202 41.3154 39.1202Z" fill="#45BCC8"/>
</svg>
