<svg width="72" height="72" viewBox="0 0 72 72" fill="none" xmlns="http://www.w3.org/2000/svg">
<rect width="72" height="72" rx="36" fill="#E27CB0" fill-opacity="0.2"/>
<path fill-rule="evenodd" clip-rule="evenodd" d="M27.228 47.5999C27.58 48.2573 28.2666 48.6679 29.0133 48.6666C29.328 48.6679 29.64 48.5946 29.92 48.4533L35.9893 45.2799C36.0053 45.2706 36.024 45.2653 36.0426 45.2666L42.0706 48.4133C42.3626 48.5706 42.6893 48.6519 43.02 48.6506C43.1253 48.6506 43.232 48.6413 43.336 48.6266C44.4213 48.4493 45.1626 47.4333 45.0026 46.3466L43.8293 39.6666C43.8225 39.6569 43.8206 39.6564 43.8201 39.6552C43.82 39.6548 43.82 39.6543 43.82 39.6533C43.82 39.6493 43.8293 39.6399 43.8293 39.6399L48.7226 34.9066C49.4453 34.2093 49.5373 33.0853 48.936 32.2799C48.6093 31.8586 48.1306 31.5813 47.6026 31.5066L40.8533 30.5333C40.8413 30.5333 40.828 30.5199 40.8146 30.5066L37.8 24.4533C37.46 23.7693 36.764 23.3373 36 23.3333C35.7786 23.3333 35.5573 23.3679 35.3466 23.4399C34.8413 23.6119 34.424 23.9746 34.1866 24.4533L31.176 30.4893C31.176 30.5173 31.148 30.5293 31.1213 30.5293L24.388 31.5026C23.976 31.5719 23.592 31.7559 23.2813 32.0359C22.888 32.4213 22.6666 32.9506 22.6666 33.5026C22.668 34.0266 22.8786 34.5279 23.2533 34.8933L28.1866 39.6399C28.1973 39.6506 28.2013 39.6653 28.2013 39.6799L27.0133 46.3333C26.9426 46.7679 27.0186 47.2133 27.228 47.5999ZM35.9613 25.2892L35.9746 25.2799H35.9999L36.0119 25.2919C36.0239 25.2919 36.0346 25.2946 36.0439 25.3026C36.0519 25.3106 36.0559 25.3212 36.0546 25.3332L39.0679 31.3586C39.3573 31.9519 39.9199 32.3652 40.5733 32.4652L47.3226 33.4466C47.3346 33.4466 47.3466 33.4492 47.3573 33.4546C47.3639 33.4559 47.3693 33.4559 47.3759 33.4546L47.3893 33.4666L47.3759 33.4959L42.4826 38.2412C41.9959 38.6972 41.7786 39.3719 41.9079 40.0266L43.0826 46.6679L43.0559 46.6932H43.0279C43.0226 46.6959 43.0173 46.6959 43.0119 46.6932C42.9986 46.6919 42.9853 46.6866 42.9733 46.6799H42.9613L36.9613 43.5466C36.6733 43.3972 36.3533 43.3172 36.0279 43.3186C35.6933 43.3186 35.3626 43.4026 35.0666 43.5599L29.0279 46.7266C29.0213 46.7279 29.0133 46.7279 29.0066 46.7266C28.9786 46.7266 28.9546 46.7079 28.9479 46.6812V46.6546L30.1213 40.0146C30.2306 39.3652 30.0173 38.7026 29.5479 38.2412L24.6146 33.5079C24.6133 33.4879 24.6159 33.4706 24.6266 33.4532L24.7079 33.4266L31.4146 32.4652C32.0679 32.3639 32.6293 31.9519 32.9199 31.3586L35.9346 25.3186C35.9413 25.3066 35.9493 25.2959 35.9613 25.2892Z" fill="#E27CB0"/>
</svg>
