<svg width="26" height="26" viewBox="0 0 26 26" fill="none" xmlns="http://www.w3.org/2000/svg">
<path d="M13 8.125V13" stroke="#E27CB0" stroke-width="2" stroke-linecap="round" stroke-linejoin="round"/>
<path d="M17.2219 15.4375L13 13" stroke="#E27CB0" stroke-width="2" stroke-linecap="round" stroke-linejoin="round"/>
<path d="M18.7051 10.1274H22.7676V6.06494" stroke="#E27CB0" stroke-width="2" stroke-linecap="round" stroke-linejoin="round"/>
<path d="M19.3198 19.3198C18.0698 20.5697 16.4773 21.4209 14.7436 21.7658C13.0099 22.1106 11.2129 21.9336 9.57977 21.2572C7.94665 20.5807 6.55081 19.4352 5.56874 17.9654C4.58668 16.4956 4.0625 14.7677 4.0625 13C4.0625 11.2323 4.58668 9.50436 5.56874 8.03459C6.55081 6.56483 7.94665 5.41929 9.57977 4.74283C11.2129 4.06637 13.0099 3.88938 14.7436 4.23424C16.4773 4.57909 18.0698 5.4303 19.3198 6.68024L22.7669 10.1274" stroke="#E27CB0" stroke-width="2" stroke-linecap="round" stroke-linejoin="round"/>
</svg>
