<svg width="26" height="26" viewBox="0 0 26 26" fill="none" xmlns="http://www.w3.org/2000/svg">
<path d="M13 13L6.825 8.36875C6.72409 8.29307 6.64219 8.19493 6.58578 8.08211C6.52937 7.96929 6.5 7.84489 6.5 7.71875V4.0625C6.5 3.84701 6.5856 3.64035 6.73798 3.48798C6.89035 3.3356 7.09701 3.25 7.3125 3.25H18.6875C18.903 3.25 19.1097 3.3356 19.262 3.48798C19.4144 3.64035 19.5 3.84701 19.5 4.0625V7.68231C19.5 7.80793 19.4709 7.93184 19.4149 8.0443C19.3589 8.15676 19.2777 8.25472 19.1774 8.33047L13 13Z" stroke="#47BCC8" stroke-width="2" stroke-linecap="round" stroke-linejoin="round"/>
<path d="M13 13L6.825 17.6313C6.72409 17.7069 6.64219 17.8051 6.58578 17.9179C6.52937 18.0307 6.5 18.1551 6.5 18.2812V21.9375C6.5 22.153 6.5856 22.3597 6.73798 22.512C6.89035 22.6644 7.09701 22.75 7.3125 22.75H18.6875C18.903 22.75 19.1097 22.6644 19.262 22.512C19.4144 22.3597 19.5 22.153 19.5 21.9375V18.3177C19.5 18.1921 19.4709 18.0682 19.4149 17.9557C19.3589 17.8432 19.2777 17.7453 19.1774 17.6695L13 13Z" stroke="#47BCC8" stroke-width="2" stroke-linecap="round" stroke-linejoin="round"/>
<path d="M7.58203 8.93701H18.3743" stroke="#47BCC8" stroke-width="2" stroke-linecap="round" stroke-linejoin="round"/>
<path d="M13 17.062V13" stroke="#47BCC8" stroke-width="2" stroke-linecap="round" stroke-linejoin="round"/>
</svg>
