<svg width="40" height="40" viewBox="0 0 40 40" fill="none" xmlns="http://www.w3.org/2000/svg">
<circle cx="20" cy="20" r="20" fill="#47BCC8"/>
<g clip-path="url(#clip0)">
<path d="M15.0002 16.8291C13.1846 16.8291 11.7075 18.3062 11.7075 20.1218C11.7075 21.9374 13.1846 23.4145 15.0002 23.4145C16.8158 23.4145 18.2929 21.9374 18.2929 20.1218C18.2929 18.3062 16.8158 16.8291 15.0002 16.8291ZM15.0002 21.9511C13.9914 21.9511 13.171 21.1306 13.171 20.1218C13.171 19.1131 13.9915 18.2925 15.0002 18.2925C16.009 18.2925 16.8295 19.1131 16.8295 20.1218C16.8295 21.1306 16.009 21.9511 15.0002 21.9511Z" fill="white"/>
<path d="M22.2075 13.2927C22.2075 11.7532 23.4607 10.5 25.0002 10.5C26.5397 10.5 27.7929 11.7532 27.7929 13.2927C27.7929 14.8322 26.5397 16.0854 25.0002 16.0854C23.4607 16.0854 22.2075 14.8322 22.2075 13.2927ZM22.671 13.2927C22.671 14.5776 23.7153 15.622 25.0002 15.622C26.2852 15.622 27.3295 14.5776 27.3295 13.2927C27.3295 12.0078 26.2851 10.9634 25.0002 10.9634C23.7153 10.9634 22.671 12.0078 22.671 13.2927Z" fill="white" stroke="white"/>
<path d="M22.2075 26.7072C22.2075 25.1678 23.4607 23.9146 25.0002 23.9146C26.5397 23.9146 27.7929 25.1677 27.7929 26.7072C27.7929 28.2467 26.5397 29.4999 25.0002 29.4999C23.4607 29.4999 22.2075 28.2467 22.2075 26.7072ZM22.671 26.7072C22.671 27.9922 23.7153 29.0365 25.0002 29.0365C26.2852 29.0365 27.3295 27.9921 27.3295 26.7072C27.3295 25.4223 26.2851 24.378 25.0002 24.378C23.7153 24.378 22.671 25.4223 22.671 26.7072Z" fill="white" stroke="white"/>
<path d="M17.3432 18.3641L22.6499 14.9319L22.9016 15.321L17.5949 18.7533L17.3432 18.3641Z" fill="white" stroke="white"/>
<path d="M17.3415 21.9548L17.5938 21.5662L22.7307 24.9002L22.4785 25.2889L17.3415 21.9548Z" fill="white" stroke="white"/>
</g>
<defs>
<clipPath id="clip0">
<rect width="20" height="20" fill="white" transform="translate(10 10)"/>
</clipPath>
</defs>
</svg>
