<svg width="26" height="26" viewBox="0 0 26 26" fill="none" xmlns="http://www.w3.org/2000/svg">
<path d="M13 16.25C15.2437 16.25 17.0625 14.4312 17.0625 12.1875C17.0625 9.94384 15.2437 8.125 13 8.125C10.7563 8.125 8.9375 9.94384 8.9375 12.1875C8.9375 14.4312 10.7563 16.25 13 16.25Z" stroke="#FCCE36" stroke-width="2" stroke-miterlimit="10"/>
<path d="M6.48047 20.2489C7.0925 19.0456 8.02556 18.0352 9.17637 17.3294C10.3272 16.6236 11.6509 16.25 13.0009 16.25C14.3509 16.25 15.6745 16.6236 16.8254 17.3293C17.9762 18.0351 18.9092 19.0456 19.5213 20.2489" stroke="#FCCE36" stroke-width="2" stroke-linecap="round" stroke-linejoin="round"/>
<path d="M17.875 5.6875H22.75" stroke="#FCCE36" stroke-width="2" stroke-linecap="round" stroke-linejoin="round"/>
<path d="M20.3125 3.25V8.125" stroke="#FCCE36" stroke-width="2" stroke-linecap="round" stroke-linejoin="round"/>
<path d="M22.6292 11.4621C22.952 13.494 22.6231 15.5758 21.6897 17.4092C20.7563 19.2425 19.2664 20.7333 17.4336 21.6677C15.6007 22.6021 13.5191 22.9321 11.4871 22.6105C9.45506 22.2889 7.57708 21.3322 6.12236 19.8775C4.66763 18.4227 3.71089 16.5447 3.38929 14.5128C3.06769 12.4808 3.39775 10.3991 4.33215 8.56626C5.26656 6.73341 6.75731 5.24349 8.59069 4.31013C10.4241 3.37676 12.5059 3.04787 14.5377 3.37062" stroke="#FCCE36" stroke-width="2" stroke-linecap="round" stroke-linejoin="round"/>
</svg>
