<svg width="259" height="339" viewBox="0 0 259 339" fill="none" xmlns="http://www.w3.org/2000/svg">
<path d="M79.4905 93.5564C46.6197 93.5413 17.1447 113.78 5.32756 144.432C-6.48961 175.099 1.78088 209.872 26.1547 231.936C50.5286 253.986 85.9499 258.77 115.289 243.965V173.032C115.289 187.505 106.566 200.56 93.1942 206.099C79.8225 211.638 64.4285 208.574 54.1809 198.341C43.9484 188.109 40.8847 172.715 46.4235 159.328C51.9624 145.956 65.0171 137.233 79.4905 137.233C99.2462 137.263 115.259 153.261 115.289 173.017V102.083C104.181 96.4691 91.9264 93.5413 79.4905 93.5564Z" fill="#45BCC8"/>
<path d="M115.274 93.5564V102.083V173.032V243.965V252.492H158.951V173.032V93.5564H115.274Z" fill="#765EA6"/>
<path d="M257.82 93.4658H180.578V137.143H257.82V93.4658ZM193.24 93.4658H180.563V137.143H193.24V93.4658Z" fill="#45BCC8"/>
<path d="M257.82 0H235.981C212.392 0.0301843 193.27 19.152 193.24 42.741V93.4658H236.917V43.6617H257.82V0ZM236.917 137.143H193.24V252.492H236.917V137.143Z" fill="#FDC744"/>
<path d="M258.71 294.705H0V338.457H258.71V294.705Z" fill="#E27CB0"/>
</svg>
