<svg width="646" height="145" viewBox="0 0 646 145" fill="none" xmlns="http://www.w3.org/2000/svg">
<path d="M46.33 53.9C27.31 53.9 10.25 65.44 3.41 82.93C-3.43 100.43 1.36 120.27 15.46 132.86C29.56 145.44 50.06 148.17 67.04 139.72V99.24C67.04 107.5 61.99 114.95 54.25 118.11C46.51 121.27 37.6 119.52 31.68 113.68C25.76 107.84 23.98 99.05 27.19 91.42C30.4 83.79 37.95 78.81 46.33 78.81C57.76 78.82 67.03 87.96 67.04 99.23V58.75C60.63 55.56 53.53 53.89 46.33 53.9Z" fill="#45BCC8"/>
<path d="M67.05 53.9V58.76V99.24V139.72V144.58H92.32V99.24V53.9H67.05Z" fill="#765EA6"/>
<path d="M132.78 53.9H107.86V144.65V87.65C107.87 72.41 118.08 59.06 132.78 55.06V53.9" fill="#FCCE36"/>
<path d="M141.62 53.9C138.64 53.9 135.67 54.29 132.79 55.06V87.65C132.79 84.08 134.94 80.86 138.24 79.49C141.54 78.12 145.34 78.88 147.87 81.41L165.49 63.78C159.16 57.43 150.57 53.87 141.62 53.9Z" fill="#765EA6"/>
<path d="M132.78 55.0601C118.07 59.0601 107.87 72.4101 107.86 87.6501V144.65H132.78V55.0601" fill="#E27CB0"/>
<path d="M205.95 0.51001H181.03V53.9H205.95V0.51001ZM205.95 78.82H181.03V120.2C181.05 133.66 191.96 144.57 205.42 144.59H217.88V119.67H205.95V78.82" fill="#45BCC8"/>
<path d="M217.88 53.9H205.95V78.82H217.88V53.9ZM181.03 53.9H173.8V78.82H181.03V53.9Z" fill="#FCCE36"/>
<path d="M205.95 53.9H181.03V78.82H205.95V53.9Z" fill="#FCCE36"/>
<path d="M293.49 53.9H258.14C242.17 53.9 229.23 66.84 229.23 82.81C229.23 98.78 242.17 111.72 258.14 111.72H273.01C275.2 111.72 276.98 113.5 276.98 115.69C276.98 117.88 275.2 119.66 273.01 119.66H237.66V144.58H273.4C289.28 144.36 302 131.37 301.89 115.49C301.78 99.61 288.88 86.8 273.01 86.79H258.14C255.94 86.79 254.15 85 254.15 82.8C254.15 80.6 255.94 78.81 258.14 78.81H293.49V53.9Z" fill="#E27CB0"/>
<path d="M355.32 53.9H311.24V78.82H355.32V53.9ZM318.47 53.9H311.24V78.82H318.47V53.9Z" fill="#765EA6"/>
<path d="M355.32 0.570007H342.86C329.4 0.590007 318.49 11.5 318.47 24.96V53.9H343.39V25.49H355.32V0.570007V0.570007ZM343.39 78.82H318.47V144.64H343.39V78.82Z" fill="#FDC744"/>
<path d="M391.59 0.619995H366.67V144.77H391.59V0.619995Z" fill="#45BCC8"/>
<path d="M451.37 53.91C433.03 53.91 416.5 64.96 409.48 81.9C402.46 98.84 406.34 118.35 419.31 131.32C432.28 144.29 451.78 148.17 468.73 141.15C485.67 134.13 496.72 117.6 496.72 99.26C496.68 74.22 476.4 53.94 451.37 53.91ZM451.37 119.67C443.11 119.67 435.66 114.69 432.5 107.06C429.34 99.43 431.09 90.64 436.93 84.8C442.77 78.96 451.56 77.21 459.19 80.37C466.82 83.53 471.8 90.98 471.8 99.24C471.78 110.52 462.64 119.66 451.37 119.67Z" fill="#FDC744"/>
<path d="M565.87 53.9V104.81C565.87 113.05 559.19 119.73 550.95 119.73C542.71 119.73 536.03 113.05 536.03 104.81V53.9H511.11V104.81C511.1 120.73 520.57 135.12 535.2 141.41C549.82 147.7 566.79 144.68 578.34 133.73C570.38 126.22 565.87 115.76 565.88 104.81L565.87 53.9Z" fill="#765EA6"/>
<path d="M645.55 53.9H620.63V104.81C620.68 110.17 617.85 115.15 613.21 117.85C608.57 120.55 602.84 120.55 598.21 117.85C593.57 115.15 590.74 110.17 590.79 104.81V53.9V104.81C590.8 115.75 586.29 126.21 578.33 133.73C589.88 144.68 606.84 147.7 621.46 141.41C636.08 135.12 645.55 120.73 645.55 104.81V53.9" fill="#E27CB0"/>
<path d="M590.79 53.9H565.87V104.81C565.86 115.75 570.37 126.21 578.33 133.73C586.29 126.22 590.8 115.76 590.79 104.81V53.9" fill="#45BCC8"/>
</svg>
