<svg width="72" height="72" viewBox="0 0 72 72" fill="none" xmlns="http://www.w3.org/2000/svg">
<rect width="72" height="72" rx="36" fill="#E27CB0" fill-opacity="0.2"/>
<path d="M41.6487 43.8654L44.3411 38.1021C45.6803 35.2358 45.4654 31.9311 43.7665 29.2622C42.0675 26.5934 39.1644 25 36.0006 25C32.8369 25 29.9338 26.5934 28.2348 29.2622C26.5358 31.9311 26.3211 35.2358 27.6602 38.1021L30.3526 43.8654C29.9768 44.2086 29.7406 44.7022 29.7406 45.25C29.7406 45.7299 29.922 46.168 30.2196 46.5C29.9221 46.832 29.7406 47.2701 29.7406 47.75C29.7406 48.7839 30.5818 49.625 31.6156 49.625H33.0666C33.355 50.9802 34.5608 52 36.0007 52C37.4406 52 38.6464 50.9802 38.9348 49.625H40.3858C41.4196 49.625 42.2608 48.7839 42.2608 47.75C42.2608 47.2701 42.0794 46.832 41.7818 46.5C42.0793 46.168 42.2608 45.7299 42.2608 45.25C42.2607 44.7022 42.0245 44.2086 41.6487 43.8654ZM31.5031 43.375L28.7927 37.5731C27.6354 35.0959 27.8211 32.24 29.2893 29.9335C30.7575 27.627 33.2664 26.25 36.0006 26.25C38.7348 26.25 41.2438 27.627 42.712 29.9335C44.1802 32.24 44.3659 35.0959 43.2086 37.5731L40.4981 43.375H38.1256V38.125H39.0006C40.1724 38.125 41.1256 37.1717 41.1256 36C41.1256 34.8282 40.1724 33.875 39.0006 33.875C37.8289 33.875 36.8756 34.8282 36.8756 36V36.875H35.1256V36C35.1256 34.8282 34.1724 33.875 33.0006 33.875C31.8289 33.875 30.8756 34.8282 30.8756 36C30.8756 37.1717 31.8289 38.125 33.0006 38.125H33.8756V43.375H31.5031ZM33.8756 36.875H33.0006C32.5181 36.875 32.1256 36.4825 32.1256 36C32.1256 35.5175 32.5181 35.125 33.0006 35.125C33.4831 35.125 33.8756 35.5175 33.8756 36V36.875ZM35.1256 38.125H36.8756V43.375H35.1256V38.125ZM38.1256 36.875V36C38.1256 35.5175 38.5181 35.125 39.0006 35.125C39.4831 35.125 39.8756 35.5175 39.8756 36C39.8756 36.4825 39.4831 36.875 39.0006 36.875H38.1256ZM36.0006 50.75C35.2558 50.75 34.6186 50.2821 34.3664 49.625H37.6348C37.3826 50.2821 36.7454 50.75 36.0006 50.75ZM40.3857 48.375H31.6156C31.2709 48.375 30.9906 48.0946 30.9906 47.75C30.9906 47.4054 31.2709 47.125 31.6156 47.125H33.1881C33.5333 47.125 33.8131 46.8452 33.8131 46.5C33.8131 46.1548 33.5333 45.875 33.1881 45.875H31.6156C31.2709 45.875 30.9906 45.5946 30.9906 45.25C30.9906 44.9054 31.2709 44.625 31.6156 44.625H40.3857C40.7303 44.625 41.0107 44.9054 41.0107 45.25C41.0107 45.5946 40.7303 45.875 40.3857 45.875H38.8131C38.468 45.875 38.1881 46.1548 38.1881 46.5C38.1881 46.8452 38.468 47.125 38.8131 47.125H40.3857C40.7303 47.125 41.0107 47.4054 41.0107 47.75C41.0107 48.0946 40.7303 48.375 40.3857 48.375Z" fill="#E27CB0"/>
<path d="M35.9999 23.75C36.345 23.75 36.6249 23.4702 36.6249 23.125V20.625C36.6249 20.2798 36.345 20 35.9999 20C35.6547 20 35.3749 20.2798 35.3749 20.625V23.125C35.3749 23.4702 35.6547 23.75 35.9999 23.75Z" fill="#E27CB0"/>
<path d="M27.2954 26.9957C27.4175 27.1178 27.5774 27.1788 27.7373 27.1788C27.8973 27.1788 28.0572 27.1178 28.1793 26.9957C28.4233 26.7516 28.4233 26.3559 28.1793 26.1118L26.4115 24.344C26.1674 24.0999 25.7718 24.0999 25.5276 24.344C25.2835 24.5881 25.2835 24.9838 25.5276 25.2279L27.2954 26.9957Z" fill="#E27CB0"/>
<path d="M24.3203 34.1955H21.8203C21.4752 34.1955 21.1953 34.4753 21.1953 34.8205C21.1953 35.1657 21.4752 35.4455 21.8203 35.4455H24.3203C24.6654 35.4455 24.9453 35.1657 24.9453 34.8205C24.9453 34.4753 24.6654 34.1955 24.3203 34.1955Z" fill="#E27CB0"/>
<path d="M27.3073 42.6406L25.5396 44.4084C25.2955 44.6525 25.2955 45.0482 25.5396 45.2923C25.6616 45.4144 25.8216 45.4754 25.9815 45.4754C26.1414 45.4754 26.3014 45.4144 26.4234 45.2923L28.1912 43.5246C28.4353 43.2805 28.4353 42.8848 28.1912 42.6406C27.9471 42.3965 27.5514 42.3965 27.3073 42.6406Z" fill="#E27CB0"/>
<path d="M45.5871 24.344L43.8193 26.1118C43.5753 26.3559 43.5753 26.7516 43.8193 26.9958C43.9414 27.1178 44.1013 27.1788 44.2613 27.1788C44.4212 27.1788 44.5811 27.1178 44.7032 26.9958L46.4709 25.228C46.715 24.9839 46.715 24.5882 46.4709 24.3441C46.2269 24.0999 45.8312 24.0999 45.5871 24.344Z" fill="#E27CB0"/>
<path d="M50.1794 34.1955H47.6794C47.3343 34.1955 47.0544 34.4753 47.0544 34.8205C47.0544 35.1657 47.3343 35.4455 47.6794 35.4455H50.1794C50.5245 35.4455 50.8044 35.1657 50.8044 34.8205C50.8044 34.4753 50.5246 34.1955 50.1794 34.1955Z" fill="#E27CB0"/>
<path d="M44.6929 42.6404C44.4488 42.3963 44.0532 42.3963 43.809 42.6404C43.5649 42.8845 43.5649 43.2802 43.809 43.5243L45.5767 45.2921C45.6988 45.4141 45.8587 45.4751 46.0187 45.4751C46.1786 45.4751 46.3385 45.4141 46.4606 45.2921C46.7047 45.048 46.7047 44.6523 46.4606 44.4081L44.6929 42.6404Z" fill="#E27CB0"/>
<path d="M35.9999 45.875C35.8355 45.875 35.6742 45.9419 35.558 46.0581C35.4417 46.1744 35.3749 46.3356 35.3749 46.5C35.3749 46.6644 35.4417 46.8256 35.558 46.9419C35.6743 47.0581 35.8355 47.125 35.9999 47.125C36.1642 47.125 36.3255 47.0581 36.4417 46.9419C36.5579 46.8256 36.6249 46.6644 36.6249 46.5C36.6249 46.3356 36.558 46.1744 36.4417 46.0581C36.3255 45.9419 36.1642 45.875 35.9999 45.875Z" fill="#E27CB0"/>
<path d="M41.6487 43.8654L44.3411 38.1021C45.6803 35.2358 45.4654 31.9311 43.7665 29.2622C42.0675 26.5934 39.1644 25 36.0006 25C32.8369 25 29.9338 26.5934 28.2348 29.2622C26.5358 31.9311 26.3211 35.2358 27.6602 38.1021L30.3526 43.8654C29.9768 44.2086 29.7406 44.7022 29.7406 45.25C29.7406 45.7299 29.922 46.168 30.2196 46.5C29.9221 46.832 29.7406 47.2701 29.7406 47.75C29.7406 48.7839 30.5818 49.625 31.6156 49.625H33.0666C33.355 50.9802 34.5608 52 36.0007 52C37.4406 52 38.6464 50.9802 38.9348 49.625H40.3858C41.4196 49.625 42.2608 48.7839 42.2608 47.75C42.2608 47.2701 42.0794 46.832 41.7818 46.5C42.0793 46.168 42.2608 45.7299 42.2608 45.25C42.2607 44.7022 42.0245 44.2086 41.6487 43.8654ZM31.5031 43.375L28.7927 37.5731C27.6354 35.0959 27.8211 32.24 29.2893 29.9335C30.7575 27.627 33.2664 26.25 36.0006 26.25C38.7348 26.25 41.2438 27.627 42.712 29.9335C44.1802 32.24 44.3659 35.0959 43.2086 37.5731L40.4981 43.375H38.1256V38.125H39.0006C40.1724 38.125 41.1256 37.1717 41.1256 36C41.1256 34.8282 40.1724 33.875 39.0006 33.875C37.8289 33.875 36.8756 34.8282 36.8756 36V36.875H35.1256V36C35.1256 34.8282 34.1724 33.875 33.0006 33.875C31.8289 33.875 30.8756 34.8282 30.8756 36C30.8756 37.1717 31.8289 38.125 33.0006 38.125H33.8756V43.375H31.5031ZM33.8756 36.875H33.0006C32.5181 36.875 32.1256 36.4825 32.1256 36C32.1256 35.5175 32.5181 35.125 33.0006 35.125C33.4831 35.125 33.8756 35.5175 33.8756 36V36.875ZM35.1256 38.125H36.8756V43.375H35.1256V38.125ZM38.1256 36.875V36C38.1256 35.5175 38.5181 35.125 39.0006 35.125C39.4831 35.125 39.8756 35.5175 39.8756 36C39.8756 36.4825 39.4831 36.875 39.0006 36.875H38.1256ZM36.0006 50.75C35.2558 50.75 34.6186 50.2821 34.3664 49.625H37.6348C37.3826 50.2821 36.7454 50.75 36.0006 50.75ZM40.3857 48.375H31.6156C31.2709 48.375 30.9906 48.0946 30.9906 47.75C30.9906 47.4054 31.2709 47.125 31.6156 47.125H33.1881C33.5333 47.125 33.8131 46.8452 33.8131 46.5C33.8131 46.1548 33.5333 45.875 33.1881 45.875H31.6156C31.2709 45.875 30.9906 45.5946 30.9906 45.25C30.9906 44.9054 31.2709 44.625 31.6156 44.625H40.3857C40.7303 44.625 41.0107 44.9054 41.0107 45.25C41.0107 45.5946 40.7303 45.875 40.3857 45.875H38.8131C38.468 45.875 38.1881 46.1548 38.1881 46.5C38.1881 46.8452 38.468 47.125 38.8131 47.125H40.3857C40.7303 47.125 41.0107 47.4054 41.0107 47.75C41.0107 48.0946 40.7303 48.375 40.3857 48.375Z" stroke="#E27CB0" stroke-width="0.5"/>
<path d="M35.9999 23.75C36.345 23.75 36.6249 23.4702 36.6249 23.125V20.625C36.6249 20.2798 36.345 20 35.9999 20C35.6547 20 35.3749 20.2798 35.3749 20.625V23.125C35.3749 23.4702 35.6547 23.75 35.9999 23.75Z" stroke="#E27CB0" stroke-width="0.5"/>
<path d="M27.2954 26.9957C27.4175 27.1178 27.5774 27.1788 27.7373 27.1788C27.8973 27.1788 28.0572 27.1178 28.1793 26.9957C28.4233 26.7516 28.4233 26.3559 28.1793 26.1118L26.4115 24.344C26.1674 24.0999 25.7718 24.0999 25.5276 24.344C25.2835 24.5881 25.2835 24.9838 25.5276 25.2279L27.2954 26.9957Z" stroke="#E27CB0" stroke-width="0.5"/>
<path d="M24.3203 34.1955H21.8203C21.4752 34.1955 21.1953 34.4753 21.1953 34.8205C21.1953 35.1657 21.4752 35.4455 21.8203 35.4455H24.3203C24.6654 35.4455 24.9453 35.1657 24.9453 34.8205C24.9453 34.4753 24.6654 34.1955 24.3203 34.1955Z" stroke="#E27CB0" stroke-width="0.5"/>
<path d="M27.3073 42.6406L25.5396 44.4084C25.2955 44.6525 25.2955 45.0482 25.5396 45.2923C25.6616 45.4144 25.8216 45.4754 25.9815 45.4754C26.1414 45.4754 26.3014 45.4144 26.4234 45.2923L28.1912 43.5246C28.4353 43.2805 28.4353 42.8848 28.1912 42.6406C27.9471 42.3965 27.5514 42.3965 27.3073 42.6406Z" stroke="#E27CB0" stroke-width="0.5"/>
<path d="M45.5871 24.344L43.8193 26.1118C43.5753 26.3559 43.5753 26.7516 43.8193 26.9958C43.9414 27.1178 44.1013 27.1788 44.2613 27.1788C44.4212 27.1788 44.5811 27.1178 44.7032 26.9958L46.4709 25.228C46.715 24.9839 46.715 24.5882 46.4709 24.3441C46.2269 24.0999 45.8312 24.0999 45.5871 24.344Z" stroke="#E27CB0" stroke-width="0.5"/>
<path d="M50.1794 34.1955H47.6794C47.3343 34.1955 47.0544 34.4753 47.0544 34.8205C47.0544 35.1657 47.3343 35.4455 47.6794 35.4455H50.1794C50.5245 35.4455 50.8044 35.1657 50.8044 34.8205C50.8044 34.4753 50.5246 34.1955 50.1794 34.1955Z" stroke="#E27CB0" stroke-width="0.5"/>
<path d="M44.6929 42.6404C44.4488 42.3963 44.0532 42.3963 43.809 42.6404C43.5649 42.8845 43.5649 43.2802 43.809 43.5243L45.5767 45.2921C45.6988 45.4141 45.8587 45.4751 46.0187 45.4751C46.1786 45.4751 46.3385 45.4141 46.4606 45.2921C46.7047 45.048 46.7047 44.6523 46.4606 44.4081L44.6929 42.6404Z" stroke="#E27CB0" stroke-width="0.5"/>
<path d="M35.9999 45.875C35.8355 45.875 35.6742 45.9419 35.558 46.0581C35.4417 46.1744 35.3749 46.3356 35.3749 46.5C35.3749 46.6644 35.4417 46.8256 35.558 46.9419C35.6743 47.0581 35.8355 47.125 35.9999 47.125C36.1642 47.125 36.3255 47.0581 36.4417 46.9419C36.5579 46.8256 36.6249 46.6644 36.6249 46.5C36.6249 46.3356 36.558 46.1744 36.4417 46.0581C36.3255 45.9419 36.1642 45.875 35.9999 45.875Z" stroke="#E27CB0" stroke-width="0.5"/>
</svg>
