<svg width="72" height="72" viewBox="0 0 72 72" fill="none" xmlns="http://www.w3.org/2000/svg">
<rect width="72" height="72" rx="36" fill="#765EA6" fill-opacity="0.2"/>
<path d="M40.3406 40.1785C43.1073 35.8371 42.7595 36.3787 42.8392 36.2655C43.8465 34.8448 44.3789 33.1726 44.3789 31.4297C44.3789 26.8076 40.6282 23 36 23C31.3869 23 27.6211 26.8001 27.6211 31.4297C27.6211 33.1715 28.1647 34.8874 29.205 36.3273L31.6593 40.1786C29.0352 40.5818 24.5742 41.7836 24.5742 44.4297C24.5742 45.3943 25.2038 46.7689 28.2031 47.8401C30.2975 48.5881 33.0664 49 36 49C41.4856 49 47.4258 47.4526 47.4258 44.4297C47.4258 41.7831 42.97 40.5827 40.3406 40.1785ZM30.4775 35.4894C30.4691 35.4763 30.4604 35.4635 30.4512 35.4509C29.5856 34.26 29.1445 32.8486 29.1445 31.4297C29.1445 27.6202 32.212 24.5234 36 24.5234C39.7801 24.5234 42.8555 27.6216 42.8555 31.4297C42.8555 32.8509 42.4228 34.2144 41.6039 35.3739C41.5305 35.4707 41.9134 34.876 36 44.1549L30.4775 35.4894ZM36 47.4766C30.0081 47.4766 26.0977 45.7153 26.0977 44.4297C26.0977 43.5656 28.107 42.1448 32.5595 41.591L35.3576 45.9817C35.4975 46.2011 35.7397 46.334 35.9999 46.334C36.2602 46.334 36.5025 46.2011 36.6423 45.9817L39.4404 41.591C43.893 42.1448 45.9023 43.5656 45.9023 44.4297C45.9023 45.7044 42.0271 47.4766 36 47.4766Z" fill="#755FA6"/>
<path d="M36 27.6211C33.8999 27.6211 32.1914 29.3296 32.1914 31.4297C32.1914 33.5297 33.8999 35.2383 36 35.2383C38.1001 35.2383 39.8086 33.5297 39.8086 31.4297C39.8086 29.3296 38.1001 27.6211 36 27.6211ZM36 33.7148C34.74 33.7148 33.7148 32.6897 33.7148 31.4297C33.7148 30.1697 34.74 29.1445 36 29.1445C37.26 29.1445 38.2852 30.1697 38.2852 31.4297C38.2852 32.6897 37.26 33.7148 36 33.7148Z" fill="#755FA6"/>
</svg>
