<svg width="72" height="72" viewBox="0 0 72 72" fill="none" xmlns="http://www.w3.org/2000/svg">
<rect width="72" height="72" rx="36" fill="#FCCE36" fill-opacity="0.2"/>
<path d="M35.9997 36.0004C35.9362 36.0004 35.8737 35.9896 35.8134 35.967L25.5826 32.1978C25.3705 32.1202 25.2305 31.9178 25.2305 31.6927C25.2305 31.4676 25.3715 31.2651 25.5837 31.1876L32.5837 28.6138C32.8615 28.5125 33.1728 28.6547 33.2751 28.9336C33.3774 29.2125 33.2342 29.5216 32.9552 29.625L27.3283 31.6927L35.9997 34.8879L44.6711 31.6927L39.0442 29.6239C38.7652 29.5216 38.622 29.2115 38.7243 28.9325C38.8266 28.6536 39.1368 28.5115 39.4157 28.6127L46.4157 31.1865C46.6279 31.2651 46.7689 31.4676 46.7689 31.6927C46.7689 31.9178 46.6289 32.1202 46.4168 32.1978L36.186 35.967C36.1257 35.9896 36.0632 36.0004 35.9997 36.0004Z" fill="#FCCE36" stroke="#FCCE36" stroke-width="0.5"/>
<path d="M35.9988 48.9232C35.9352 48.9232 35.8728 48.9124 35.8135 48.8898L30.0951 46.7898C29.8162 46.6875 29.6729 46.3784 29.7752 46.0984C29.8775 45.8195 30.1877 45.6763 30.4666 45.7786L35.9988 47.8107L41.532 45.7786C41.8109 45.6752 42.12 45.8195 42.2234 46.0984C42.3257 46.3774 42.1825 46.6864 41.9035 46.7898L36.1851 48.8898C36.1248 48.9124 36.0623 48.9232 35.9988 48.9232Z" fill="#FCCE36" stroke="#FCCE36" stroke-width="0.5"/>
<path d="M25.7689 42.2035C25.4717 42.2035 25.2305 41.9623 25.2305 41.6651V31.6928C25.2305 31.3955 25.4717 31.1543 25.7689 31.1543C26.0662 31.1543 26.3074 31.3955 26.3074 31.6928V41.6651C26.3074 41.9623 26.0662 42.2035 25.7689 42.2035Z" fill="#FCCE36" stroke="#FCCE36" stroke-width="0.5"/>
<path d="M46.2299 42.2035C45.9326 42.2035 45.6914 41.9623 45.6914 41.6651V31.6928C45.6914 31.3955 45.9326 31.1543 46.2299 31.1543C46.5271 31.1543 46.7683 31.3955 46.7683 31.6928V41.6651C46.7683 41.9623 46.5271 42.2035 46.2299 42.2035Z" fill="#FCCE36" stroke="#FCCE36" stroke-width="0.5"/>
<path d="M35.9994 31.6922C35.7022 31.6922 35.4609 31.451 35.4609 31.1538V26.8461C35.4609 26.5488 35.7022 26.3076 35.9994 26.3076C36.2966 26.3076 36.5378 26.5488 36.5378 26.8461V31.1538C36.5378 31.451 36.2966 31.6922 35.9994 31.6922Z" fill="#FCCE36" stroke="#FCCE36" stroke-width="0.5"/>
<path d="M45.6274 46.1657C45.4895 46.1657 45.3517 46.113 45.2461 46.0085L42.6184 43.3808C42.4084 43.1708 42.4084 42.8294 42.6184 42.6194C42.8284 42.4094 43.1698 42.4094 43.3798 42.6194L46.0075 45.2471C46.2175 45.4571 46.2175 45.7985 46.0075 46.0085C45.9031 46.113 45.7652 46.1657 45.6274 46.1657Z" fill="#FCCE36" stroke="#FCCE36" stroke-width="0.5"/>
<path d="M26.3727 46.1657C26.2349 46.1657 26.097 46.113 25.9915 46.0085C25.7815 45.7985 25.7815 45.4571 25.9915 45.2471L28.6192 42.6194C28.8292 42.4094 29.1706 42.4094 29.3806 42.6194C29.5906 42.8294 29.5906 43.1708 29.3806 43.3808L26.7529 46.0085C26.6484 46.113 26.5106 46.1657 26.3727 46.1657Z" fill="#FCCE36" stroke="#FCCE36" stroke-width="0.5"/>
<path d="M35.9994 48.9228C35.7022 48.9228 35.4609 48.6816 35.4609 48.3844V35.4613C35.4609 35.1641 35.7022 34.9229 35.9994 34.9229C36.2966 34.9229 36.5378 35.1641 36.5378 35.4613V48.3844C36.5378 48.6816 36.2966 48.9228 35.9994 48.9228Z" fill="#FCCE36" stroke="#FCCE36" stroke-width="0.5"/>
<path d="M35.9995 27.3848C34.8117 27.3848 33.8457 26.4188 33.8457 25.231C33.8457 24.0431 34.8117 23.0771 35.9995 23.0771C37.1874 23.0771 38.1534 24.0431 38.1534 25.231C38.1534 26.4188 37.1874 27.3848 35.9995 27.3848ZM35.9995 24.1541C35.4062 24.1541 34.9226 24.6376 34.9226 25.231C34.9226 25.8244 35.4062 26.3079 35.9995 26.3079C36.5929 26.3079 37.0765 25.8244 37.0765 25.231C37.0765 24.6376 36.5929 24.1541 35.9995 24.1541Z" fill="#FCCE36" stroke="#FCCE36" stroke-width="0.5"/>
<path d="M46.7691 48.923C45.5812 48.923 44.6152 47.9569 44.6152 46.7691C44.6152 45.5812 45.5812 44.6152 46.7691 44.6152C47.9569 44.6152 48.9229 45.5812 48.9229 46.7691C48.9229 47.9569 47.9569 48.923 46.7691 48.923ZM46.7691 45.6922C46.1757 45.6922 45.6922 46.1757 45.6922 46.7691C45.6922 47.3625 46.1757 47.846 46.7691 47.846C47.3625 47.846 47.846 47.3625 47.846 46.7691C47.846 46.1757 47.3625 45.6922 46.7691 45.6922Z" fill="#FCCE36" stroke="#FCCE36" stroke-width="0.5"/>
<path d="M25.23 48.923C24.0422 48.923 23.0762 47.9569 23.0762 46.7691C23.0762 45.5812 24.0422 44.6152 25.23 44.6152C26.4179 44.6152 27.3839 45.5812 27.3839 46.7691C27.3839 47.9569 26.4179 48.923 25.23 48.923ZM25.23 45.6922C24.6366 45.6922 24.1531 46.1757 24.1531 46.7691C24.1531 47.3625 24.6366 47.846 25.23 47.846C25.8234 47.846 26.3069 47.3625 26.3069 46.7691C26.3069 46.1757 25.8234 45.6922 25.23 45.6922Z" fill="#FCCE36" stroke="#FCCE36" stroke-width="0.5"/>
</svg>
