<svg width="72" height="72" viewBox="0 0 72 72" fill="none" xmlns="http://www.w3.org/2000/svg">
<rect width="72" height="72" rx="36" fill="#45BCC8" fill-opacity="0.2"/>
<path fill-rule="evenodd" clip-rule="evenodd" d="M35.917 24.583C32.5096 24.583 29.7726 27.3199 29.7726 30.7273C29.7726 34.1357 32.5094 36.8729 35.917 36.8729C39.3246 36.8729 42.0613 34.1357 42.0613 30.7273C42.0613 27.3199 39.3244 24.583 35.917 24.583ZM35.917 26.583C38.2198 26.583 40.0613 28.4245 40.0613 30.7273C40.0613 33.0312 38.22 34.8729 35.917 34.8729C33.614 34.8729 31.7726 33.0312 31.7726 30.7273C31.7726 28.4245 33.6141 26.583 35.917 26.583ZM28.3865 25.8388C28.9388 25.8388 29.3865 26.2866 29.3865 26.8388C29.3865 27.3911 28.9388 27.8388 28.3865 27.8388C26.8021 27.8388 25.517 29.1234 25.517 30.7072C25.517 32.291 26.8021 33.5755 28.3865 33.5755C28.9388 33.5755 29.3865 34.0232 29.3865 34.5755C29.3865 35.1278 28.9388 35.5755 28.3865 35.5755C25.6977 35.5755 23.517 33.3958 23.517 30.7072C23.517 28.0186 25.6977 25.8388 28.3865 25.8388ZM48.3293 30.7072C48.3293 28.0186 46.1486 25.8388 43.4597 25.8388C42.9074 25.8388 42.4597 26.2866 42.4597 26.8388C42.4597 27.3911 42.9074 27.8388 43.4597 27.8388C45.0442 27.8388 46.3293 29.1234 46.3293 30.7072C46.3293 32.291 45.0442 33.5755 43.4597 33.5755C42.9074 33.5755 42.4597 34.0232 42.4597 34.5755C42.4597 35.1278 42.9074 35.5755 43.4597 35.5755C46.1486 35.5755 48.3293 33.3958 48.3293 30.7072ZM47.3278 38.073C46.6875 37.9285 46.0033 37.8297 45.3076 37.7817C44.7566 37.7437 44.2791 38.1596 44.2411 38.7105C44.2031 39.2615 44.619 39.739 45.17 39.777C45.7653 39.818 46.3488 39.9023 46.9161 40.0299C47.7983 40.2031 48.3735 40.49 48.5163 40.7892C48.6236 41.015 48.6236 41.2805 48.5153 41.509C48.3744 41.8051 47.804 42.0907 46.9342 42.2695C46.3933 42.3807 46.0449 42.9095 46.1561 43.4504C46.2674 43.9914 46.7961 44.3398 47.3371 44.2285C48.7747 43.9329 49.8278 43.4058 50.3218 42.3671C50.6881 41.5949 50.6881 40.6993 50.3219 39.929C49.8243 38.8864 48.7531 38.352 47.3278 38.073ZM27.6053 38.7105C27.5673 38.1596 27.0898 37.7437 26.5388 37.7817C25.8431 37.8297 25.1589 37.9285 24.4912 38.0787L24.2159 38.137C22.9524 38.4257 21.9885 38.9562 21.5258 39.9289C21.158 40.6985 21.158 41.5957 21.5262 42.3679C22.0181 43.4055 23.0711 43.9328 24.5093 44.2285C25.0503 44.3398 25.579 43.9914 25.6902 43.4504C25.8015 42.9095 25.4531 42.3807 24.9122 42.2695C24.0427 42.0907 23.4729 41.8054 23.3324 41.5092C23.223 41.2797 23.223 41.0158 23.3311 40.7897C23.4737 40.4898 24.0484 40.203 24.9029 40.0357L25.3472 39.9448C25.7901 39.8628 26.2299 39.8078 26.6764 39.777C27.2274 39.739 27.6433 39.2615 27.6053 38.7105ZM26.8894 42.9124C26.8894 39.7311 30.1799 38.6124 35.9169 38.6124L36.3234 38.6143C41.8206 38.6659 44.9445 39.7872 44.9445 42.8892C44.9445 45.9181 41.9584 47.0779 36.7195 47.1814L35.9169 47.1892C30.1668 47.1892 26.8894 46.0901 26.8894 42.9124ZM42.9445 42.8892C42.9445 41.4084 40.5704 40.6124 35.9169 40.6124C31.268 40.6124 28.8894 41.4211 28.8894 42.9124C28.8894 44.3933 31.2627 45.1892 35.9169 45.1892C40.5645 45.1892 42.9445 44.3797 42.9445 42.8892Z" fill="url(#paint0_linear)"/>
<path fill-rule="evenodd" clip-rule="evenodd" d="M35.917 24.583C32.5096 24.583 29.7726 27.3199 29.7726 30.7273C29.7726 34.1357 32.5094 36.8729 35.917 36.8729C39.3246 36.8729 42.0613 34.1357 42.0613 30.7273C42.0613 27.3199 39.3244 24.583 35.917 24.583ZM35.917 26.583C38.2198 26.583 40.0613 28.4245 40.0613 30.7273C40.0613 33.0312 38.22 34.8729 35.917 34.8729C33.614 34.8729 31.7726 33.0312 31.7726 30.7273C31.7726 28.4245 33.6141 26.583 35.917 26.583ZM28.3865 25.8388C28.9388 25.8388 29.3865 26.2866 29.3865 26.8388C29.3865 27.3911 28.9388 27.8388 28.3865 27.8388C26.8021 27.8388 25.517 29.1234 25.517 30.7072C25.517 32.291 26.8021 33.5755 28.3865 33.5755C28.9388 33.5755 29.3865 34.0232 29.3865 34.5755C29.3865 35.1278 28.9388 35.5755 28.3865 35.5755C25.6977 35.5755 23.517 33.3958 23.517 30.7072C23.517 28.0186 25.6977 25.8388 28.3865 25.8388ZM48.3293 30.7072C48.3293 28.0186 46.1486 25.8388 43.4597 25.8388C42.9074 25.8388 42.4597 26.2866 42.4597 26.8388C42.4597 27.3911 42.9074 27.8388 43.4597 27.8388C45.0442 27.8388 46.3293 29.1234 46.3293 30.7072C46.3293 32.291 45.0442 33.5755 43.4597 33.5755C42.9074 33.5755 42.4597 34.0232 42.4597 34.5755C42.4597 35.1278 42.9074 35.5755 43.4597 35.5755C46.1486 35.5755 48.3293 33.3958 48.3293 30.7072ZM47.3278 38.073C46.6875 37.9285 46.0033 37.8297 45.3076 37.7817C44.7566 37.7437 44.2791 38.1596 44.2411 38.7105C44.2031 39.2615 44.619 39.739 45.17 39.777C45.7653 39.818 46.3488 39.9023 46.9161 40.0299C47.7983 40.2031 48.3735 40.49 48.5163 40.7892C48.6236 41.015 48.6236 41.2805 48.5153 41.509C48.3744 41.8051 47.804 42.0907 46.9342 42.2695C46.3933 42.3807 46.0449 42.9095 46.1561 43.4504C46.2674 43.9914 46.7961 44.3398 47.3371 44.2285C48.7747 43.9329 49.8278 43.4058 50.3218 42.3671C50.6881 41.5949 50.6881 40.6993 50.3219 39.929C49.8243 38.8864 48.7531 38.352 47.3278 38.073ZM27.6053 38.7105C27.5673 38.1596 27.0898 37.7437 26.5388 37.7817C25.8431 37.8297 25.1589 37.9285 24.4912 38.0787L24.2159 38.137C22.9524 38.4257 21.9885 38.9562 21.5258 39.9289C21.158 40.6985 21.158 41.5957 21.5262 42.3679C22.0181 43.4055 23.0711 43.9328 24.5093 44.2285C25.0503 44.3398 25.579 43.9914 25.6902 43.4504C25.8015 42.9095 25.4531 42.3807 24.9122 42.2695C24.0427 42.0907 23.4729 41.8054 23.3324 41.5092C23.223 41.2797 23.223 41.0158 23.3311 40.7897C23.4737 40.4898 24.0484 40.203 24.9029 40.0357L25.3472 39.9448C25.7901 39.8628 26.2299 39.8078 26.6764 39.777C27.2274 39.739 27.6433 39.2615 27.6053 38.7105ZM26.8894 42.9124C26.8894 39.7311 30.1799 38.6124 35.9169 38.6124L36.3234 38.6143C41.8206 38.6659 44.9445 39.7872 44.9445 42.8892C44.9445 45.9181 41.9584 47.0779 36.7195 47.1814L35.9169 47.1892C30.1668 47.1892 26.8894 46.0901 26.8894 42.9124ZM42.9445 42.8892C42.9445 41.4084 40.5704 40.6124 35.9169 40.6124C31.268 40.6124 28.8894 41.4211 28.8894 42.9124C28.8894 44.3933 31.2627 45.1892 35.9169 45.1892C40.5645 45.1892 42.9445 44.3797 42.9445 42.8892Z" fill="#FCCE37"/>
<path fill-rule="evenodd" clip-rule="evenodd" d="M35.917 24.583C32.5096 24.583 29.7726 27.3199 29.7726 30.7273C29.7726 34.1357 32.5094 36.8729 35.917 36.8729C39.3246 36.8729 42.0613 34.1357 42.0613 30.7273C42.0613 27.3199 39.3244 24.583 35.917 24.583ZM35.917 26.583C38.2198 26.583 40.0613 28.4245 40.0613 30.7273C40.0613 33.0312 38.22 34.8729 35.917 34.8729C33.614 34.8729 31.7726 33.0312 31.7726 30.7273C31.7726 28.4245 33.6141 26.583 35.917 26.583ZM28.3865 25.8388C28.9388 25.8388 29.3865 26.2866 29.3865 26.8388C29.3865 27.3911 28.9388 27.8388 28.3865 27.8388C26.8021 27.8388 25.517 29.1234 25.517 30.7072C25.517 32.291 26.8021 33.5755 28.3865 33.5755C28.9388 33.5755 29.3865 34.0232 29.3865 34.5755C29.3865 35.1278 28.9388 35.5755 28.3865 35.5755C25.6977 35.5755 23.517 33.3958 23.517 30.7072C23.517 28.0186 25.6977 25.8388 28.3865 25.8388ZM48.3293 30.7072C48.3293 28.0186 46.1486 25.8388 43.4597 25.8388C42.9074 25.8388 42.4597 26.2866 42.4597 26.8388C42.4597 27.3911 42.9074 27.8388 43.4597 27.8388C45.0442 27.8388 46.3293 29.1234 46.3293 30.7072C46.3293 32.291 45.0442 33.5755 43.4597 33.5755C42.9074 33.5755 42.4597 34.0232 42.4597 34.5755C42.4597 35.1278 42.9074 35.5755 43.4597 35.5755C46.1486 35.5755 48.3293 33.3958 48.3293 30.7072ZM47.3278 38.073C46.6875 37.9285 46.0033 37.8297 45.3076 37.7817C44.7566 37.7437 44.2791 38.1596 44.2411 38.7105C44.2031 39.2615 44.619 39.739 45.17 39.777C45.7653 39.818 46.3488 39.9023 46.9161 40.0299C47.7983 40.2031 48.3735 40.49 48.5163 40.7892C48.6236 41.015 48.6236 41.2805 48.5153 41.509C48.3744 41.8051 47.804 42.0907 46.9342 42.2695C46.3933 42.3807 46.0449 42.9095 46.1561 43.4504C46.2674 43.9914 46.7961 44.3398 47.3371 44.2285C48.7747 43.9329 49.8278 43.4058 50.3218 42.3671C50.6881 41.5949 50.6881 40.6993 50.3219 39.929C49.8243 38.8864 48.7531 38.352 47.3278 38.073ZM27.6053 38.7105C27.5673 38.1596 27.0898 37.7437 26.5388 37.7817C25.8431 37.8297 25.1589 37.9285 24.4912 38.0787L24.2159 38.137C22.9524 38.4257 21.9885 38.9562 21.5258 39.9289C21.158 40.6985 21.158 41.5957 21.5262 42.3679C22.0181 43.4055 23.0711 43.9328 24.5093 44.2285C25.0503 44.3398 25.579 43.9914 25.6902 43.4504C25.8015 42.9095 25.4531 42.3807 24.9122 42.2695C24.0427 42.0907 23.4729 41.8054 23.3324 41.5092C23.223 41.2797 23.223 41.0158 23.3311 40.7897C23.4737 40.4898 24.0484 40.203 24.9029 40.0357L25.3472 39.9448C25.7901 39.8628 26.2299 39.8078 26.6764 39.777C27.2274 39.739 27.6433 39.2615 27.6053 38.7105ZM26.8894 42.9124C26.8894 39.7311 30.1799 38.6124 35.9169 38.6124L36.3234 38.6143C41.8206 38.6659 44.9445 39.7872 44.9445 42.8892C44.9445 45.9181 41.9584 47.0779 36.7195 47.1814L35.9169 47.1892C30.1668 47.1892 26.8894 46.0901 26.8894 42.9124ZM42.9445 42.8892C42.9445 41.4084 40.5704 40.6124 35.9169 40.6124C31.268 40.6124 28.8894 41.4211 28.8894 42.9124C28.8894 44.3933 31.2627 45.1892 35.9169 45.1892C40.5645 45.1892 42.9445 44.3797 42.9445 42.8892Z" fill="#47BCC8"/>
<defs>
<linearGradient id="paint0_linear" x1="21.25" y1="35.8861" x2="50.5965" y2="35.8861" gradientUnits="userSpaceOnUse">
<stop stop-color="#755FA6"/>
<stop offset="1" stop-color="#47BCC8"/>
</linearGradient>
</defs>
</svg>
