<svg width="250" height="57" viewBox="0 0 250 57" fill="none" xmlns="http://www.w3.org/2000/svg">
<g filter="url(#filter0_d)">
<path d="M243.812 2.47827H6.18789C4.82085 2.47827 3.71265 3.58783 3.71265 4.95653V49.5652C3.71265 50.9339 4.82085 52.0435 6.18789 52.0435H243.812C245.179 52.0435 246.287 50.9339 246.287 49.5652V4.95653C246.287 3.58783 245.179 2.47827 243.812 2.47827Z" fill="white"/>
<path d="M40.2633 27.4927C40.2633 26.4774 40.1811 25.7364 40.0031 24.9681H28.423V29.5508H35.2203C35.0832 30.6897 34.3432 32.4047 32.6987 33.5573L32.6756 33.7107L36.337 36.5505L36.5907 36.5759C38.9204 34.4217 40.2633 31.2521 40.2633 27.4927Z" fill="#4285F4"/>
<path d="M28.4227 39.5671C31.7527 39.5671 34.5484 38.4693 36.5903 36.5759L32.6984 33.5573C31.6569 34.2845 30.259 34.7922 28.4227 34.7922C25.1611 34.7922 22.3929 32.6381 21.4062 29.6606L21.2615 29.673L17.4543 32.623L17.4045 32.7615C19.4328 36.7954 23.5989 39.5671 28.4227 39.5671Z" fill="#34A853"/>
<path d="M21.4061 29.6606C21.1457 28.8922 20.9949 28.0689 20.9949 27.2182C20.9949 26.3675 21.1457 25.5443 21.3923 24.7759L21.3854 24.6122L17.5306 21.6149L17.4045 21.675C16.5686 23.3489 16.0889 25.2287 16.0889 27.2182C16.0889 29.2078 16.5686 31.0874 17.4045 32.7614L21.4061 29.6606Z" fill="#FBBC05"/>
<path d="M28.4227 19.6444C30.7387 19.6444 32.3008 20.646 33.1917 21.4831L36.6725 18.0803C34.5347 16.0907 31.7527 14.8696 28.4227 14.8696C23.5988 14.8696 19.4328 17.6411 17.4045 21.675L21.3924 24.776C22.3929 21.7985 25.1611 19.6444 28.4227 19.6444Z" fill="#EB4335"/>
<path d="M75.9514 28.9151C75.8368 30.1286 75.3889 31.0765 74.6077 31.7588C73.8264 32.4359 72.7874 32.7744 71.4905 32.7744C70.5842 32.7744 69.7847 32.5609 69.092 32.1338C68.4045 31.7015 67.8733 31.0895 67.4983 30.2979C67.1233 29.5062 66.928 28.5869 66.9124 27.5401V26.4776C66.9124 25.4047 67.1025 24.4593 67.4827 23.6416C67.8629 22.8239 68.4071 22.1937 69.1155 21.751C69.829 21.3083 70.6519 21.0869 71.5842 21.0869C72.8394 21.0869 73.8499 21.4281 74.6155 22.1104C75.3811 22.7927 75.8264 23.7562 75.9514 25.001H73.9827C73.8889 24.1833 73.6493 23.5948 73.2639 23.2354C72.8837 22.8708 72.3238 22.6885 71.5842 22.6885C70.7249 22.6885 70.0634 23.0036 69.5999 23.6338C69.1415 24.2588 68.9071 25.1781 68.8967 26.3916V27.3994C68.8967 28.6286 69.1155 29.5661 69.553 30.2119C69.9957 30.8578 70.6415 31.1807 71.4905 31.1807C72.2665 31.1807 72.8499 31.0062 73.2405 30.6573C73.6311 30.3083 73.8785 29.7276 73.9827 28.9151H75.9514ZM77.1858 28.3135C77.1858 27.4854 77.3499 26.7406 77.678 26.0791C78.0061 25.4125 78.467 24.902 79.0608 24.5479C79.6545 24.1885 80.3368 24.0088 81.1077 24.0088C82.2483 24.0088 83.1728 24.376 83.8811 25.1104C84.5946 25.8448 84.9801 26.8187 85.0374 28.0323L85.0452 28.4776C85.0452 29.3109 84.8837 30.0557 84.5608 30.7119C84.2431 31.3682 83.7847 31.876 83.1858 32.2354C82.592 32.5948 81.9045 32.7744 81.1233 32.7744C79.9306 32.7744 78.9749 32.3786 78.2561 31.5869C77.5426 30.7901 77.1858 29.7302 77.1858 28.4073V28.3135ZM79.0842 28.4776C79.0842 29.3474 79.2639 30.0297 79.6233 30.5244C79.9827 31.014 80.4827 31.2588 81.1233 31.2588C81.7639 31.2588 82.2613 31.0088 82.6155 30.5088C82.9749 30.0088 83.1545 29.277 83.1545 28.3135C83.1545 27.4593 82.9696 26.7823 82.5999 26.2823C82.2353 25.7823 81.7379 25.5323 81.1077 25.5323C80.4879 25.5323 79.9957 25.7797 79.6311 26.2744C79.2665 26.764 79.0842 27.4984 79.0842 28.4776ZM88.4124 24.1651L88.467 25.1416C89.092 24.3864 89.9124 24.0088 90.928 24.0088C92.6884 24.0088 93.5842 25.0166 93.6155 27.0323V32.6182H91.717V27.1416C91.717 26.6052 91.5999 26.2093 91.3655 25.9541C91.1363 25.6937 90.7587 25.5635 90.2327 25.5635C89.467 25.5635 88.8967 25.9099 88.5217 26.6026V32.6182H86.6233V24.1651H88.4124ZM97.9358 22.1104V24.1651H99.428V25.5713H97.9358V30.2901C97.9358 30.613 97.9983 30.8474 98.1233 30.9932C98.2535 31.1338 98.4827 31.2041 98.8108 31.2041C99.0295 31.2041 99.2509 31.1781 99.4749 31.126V32.5948C99.0426 32.7145 98.6259 32.7744 98.2249 32.7744C96.7665 32.7744 96.0374 31.9698 96.0374 30.3604V25.5713H94.6467V24.1651H96.0374V22.1104H97.9358ZM102.905 32.6182H101.006V24.1651H102.905V32.6182ZM100.889 21.9698C100.889 21.6781 100.98 21.4359 101.162 21.2432C101.35 21.0505 101.615 20.9541 101.959 20.9541C102.303 20.9541 102.569 21.0505 102.756 21.2432C102.944 21.4359 103.037 21.6781 103.037 21.9698C103.037 22.2562 102.944 22.4958 102.756 22.6885C102.569 22.876 102.303 22.9698 101.959 22.9698C101.615 22.9698 101.35 22.876 101.162 22.6885C100.98 22.4958 100.889 22.2562 100.889 21.9698ZM106.74 24.1651L106.795 25.1416C107.42 24.3864 108.24 24.0088 109.256 24.0088C111.017 24.0088 111.912 25.0166 111.944 27.0323V32.6182H110.045V27.1416C110.045 26.6052 109.928 26.2093 109.694 25.9541C109.464 25.6937 109.087 25.5635 108.561 25.5635C107.795 25.5635 107.225 25.9099 106.85 26.6026V32.6182H104.951V24.1651H106.74ZM119.006 31.7901C118.449 32.4463 117.657 32.7744 116.631 32.7744C115.714 32.7744 115.019 32.5062 114.545 31.9698C114.076 31.4333 113.842 30.6573 113.842 29.6416V24.1651H115.74V29.6182C115.74 30.6911 116.186 31.2276 117.076 31.2276C117.998 31.2276 118.621 30.8968 118.944 30.2354V24.1651H120.842V32.6182H119.053L119.006 31.7901ZM126.498 32.7744C125.295 32.7744 124.319 32.3968 123.569 31.6416C122.824 30.8812 122.451 29.8708 122.451 28.6104V28.376C122.451 27.5323 122.613 26.7797 122.936 26.1182C123.264 25.4515 123.722 24.9333 124.311 24.5635C124.899 24.1937 125.556 24.0088 126.28 24.0088C127.431 24.0088 128.319 24.376 128.944 25.1104C129.574 25.8448 129.889 26.8838 129.889 28.2276V28.9932H124.365C124.423 29.6911 124.655 30.2432 125.061 30.6494C125.472 31.0557 125.988 31.2588 126.608 31.2588C127.477 31.2588 128.186 30.9073 128.733 30.2041L129.756 31.1807C129.418 31.6859 128.964 32.0791 128.397 32.3604C127.834 32.6364 127.201 32.7744 126.498 32.7744ZM126.272 25.5323C125.751 25.5323 125.329 25.7145 125.006 26.0791C124.688 26.4437 124.485 26.9515 124.397 27.6026H128.014V27.4619C127.972 26.8265 127.803 26.3474 127.506 26.0244C127.209 25.6963 126.798 25.5323 126.272 25.5323ZM142.78 30.001L144.123 24.1651H145.975L143.67 32.6182H142.108L140.295 26.8135L138.514 32.6182H136.951L134.639 24.1651H136.49L137.858 29.9385L139.592 24.1651H141.022L142.78 30.001ZM149.264 32.6182H147.365V24.1651H149.264V32.6182ZM147.248 21.9698C147.248 21.6781 147.339 21.4359 147.522 21.2432C147.709 21.0505 147.975 20.9541 148.319 20.9541C148.662 20.9541 148.928 21.0505 149.115 21.2432C149.303 21.4359 149.397 21.6781 149.397 21.9698C149.397 22.2562 149.303 22.4958 149.115 22.6885C148.928 22.876 148.662 22.9698 148.319 22.9698C147.975 22.9698 147.709 22.876 147.522 22.6885C147.339 22.4958 147.248 22.2562 147.248 21.9698ZM153.717 22.1104V24.1651H155.209V25.5713H153.717V30.2901C153.717 30.613 153.78 30.8474 153.905 30.9932C154.035 31.1338 154.264 31.2041 154.592 31.2041C154.811 31.2041 155.032 31.1781 155.256 31.126V32.5948C154.824 32.7145 154.407 32.7744 154.006 32.7744C152.548 32.7744 151.819 31.9698 151.819 30.3604V25.5713H150.428V24.1651H151.819V22.1104H153.717ZM158.537 25.0869C159.157 24.3682 159.941 24.0088 160.889 24.0088C162.691 24.0088 163.605 25.0375 163.631 27.0948V32.6182H161.733V27.1651C161.733 26.5817 161.605 26.1703 161.35 25.9307C161.1 25.6859 160.73 25.5635 160.24 25.5635C159.48 25.5635 158.912 25.902 158.537 26.5791V32.6182H156.639V20.6182H158.537V25.0869ZM178.444 31.1416C178.032 31.6781 177.462 32.0843 176.733 32.3604C176.003 32.6364 175.175 32.7744 174.248 32.7744C173.295 32.7744 172.451 32.5583 171.717 32.126C170.983 31.6937 170.415 31.0765 170.014 30.2744C169.618 29.4672 169.412 28.527 169.397 27.4541V26.5635C169.397 24.8448 169.808 23.5036 170.631 22.5401C171.454 21.5713 172.602 21.0869 174.076 21.0869C175.342 21.0869 176.347 21.3994 177.092 22.0244C177.837 22.6494 178.285 23.5505 178.436 24.7276H176.498C176.28 23.3578 175.485 22.6729 174.115 22.6729C173.23 22.6729 172.556 22.9932 172.092 23.6338C171.634 24.2692 171.397 25.2041 171.381 26.4385V27.3135C171.381 28.5427 171.639 29.4984 172.155 30.1807C172.675 30.8578 173.397 31.1963 174.319 31.1963C175.329 31.1963 176.048 30.9672 176.475 30.5088V28.2823H174.131V26.7823H178.444V31.1416ZM180.076 28.3135C180.076 27.4854 180.24 26.7406 180.569 26.0791C180.897 25.4125 181.358 24.902 181.951 24.5479C182.545 24.1885 183.227 24.0088 183.998 24.0088C185.139 24.0088 186.063 24.376 186.772 25.1104C187.485 25.8448 187.871 26.8187 187.928 28.0323L187.936 28.4776C187.936 29.3109 187.774 30.0557 187.451 30.7119C187.134 31.3682 186.675 31.876 186.076 32.2354C185.483 32.5948 184.795 32.7744 184.014 32.7744C182.821 32.7744 181.865 32.3786 181.147 31.5869C180.433 30.7901 180.076 29.7302 180.076 28.4073V28.3135ZM181.975 28.4776C181.975 29.3474 182.155 30.0297 182.514 30.5244C182.873 31.014 183.373 31.2588 184.014 31.2588C184.655 31.2588 185.152 31.0088 185.506 30.5088C185.865 30.0088 186.045 29.277 186.045 28.3135C186.045 27.4593 185.86 26.7823 185.49 26.2823C185.126 25.7823 184.628 25.5323 183.998 25.5323C183.378 25.5323 182.886 25.7797 182.522 26.2744C182.157 26.764 181.975 27.4984 181.975 28.4776ZM189.186 28.3135C189.186 27.4854 189.35 26.7406 189.678 26.0791C190.006 25.4125 190.467 24.902 191.061 24.5479C191.655 24.1885 192.337 24.0088 193.108 24.0088C194.248 24.0088 195.173 24.376 195.881 25.1104C196.595 25.8448 196.98 26.8187 197.037 28.0323L197.045 28.4776C197.045 29.3109 196.884 30.0557 196.561 30.7119C196.243 31.3682 195.785 31.876 195.186 32.2354C194.592 32.5948 193.905 32.7744 193.123 32.7744C191.931 32.7744 190.975 32.3786 190.256 31.5869C189.543 30.7901 189.186 29.7302 189.186 28.4073V28.3135ZM191.084 28.4776C191.084 29.3474 191.264 30.0297 191.623 30.5244C191.983 31.014 192.483 31.2588 193.123 31.2588C193.764 31.2588 194.261 31.0088 194.615 30.5088C194.975 30.0088 195.155 29.277 195.155 28.3135C195.155 27.4593 194.97 26.7823 194.6 26.2823C194.235 25.7823 193.738 25.5323 193.108 25.5323C192.488 25.5323 191.996 25.7797 191.631 26.2744C191.267 26.764 191.084 27.4984 191.084 28.4776ZM198.319 28.3291C198.319 27.0166 198.626 25.9698 199.24 25.1885C199.86 24.402 200.681 24.0088 201.701 24.0088C202.665 24.0088 203.423 24.3448 203.975 25.0166L204.061 24.1651H205.772V32.3604C205.772 33.4698 205.425 34.3448 204.733 34.9854C204.045 35.626 203.115 35.9463 201.944 35.9463C201.324 35.9463 200.717 35.8161 200.123 35.5557C199.535 35.3005 199.087 34.9645 198.78 34.5479L199.678 33.4073C200.261 34.1 200.98 34.4463 201.834 34.4463C202.464 34.4463 202.962 34.2744 203.326 33.9307C203.691 33.5922 203.873 33.0922 203.873 32.4307V31.8604C203.326 32.4698 202.597 32.7744 201.686 32.7744C200.696 32.7744 199.886 32.3812 199.256 31.5948C198.631 30.8083 198.319 29.7198 198.319 28.3291ZM200.209 28.4932C200.209 29.3422 200.381 30.0114 200.725 30.501C201.074 30.9854 201.556 31.2276 202.17 31.2276C202.936 31.2276 203.503 30.8994 203.873 30.2432V26.5244C203.514 25.8838 202.951 25.5635 202.186 25.5635C201.561 25.5635 201.074 25.8109 200.725 26.3057C200.381 26.8005 200.209 27.5297 200.209 28.4932ZM209.748 32.6182H207.85V20.6182H209.748V32.6182ZM215.545 32.7744C214.342 32.7744 213.365 32.3968 212.615 31.6416C211.871 30.8812 211.498 29.8708 211.498 28.6104V28.376C211.498 27.5323 211.66 26.7797 211.983 26.1182C212.311 25.4515 212.769 24.9333 213.358 24.5635C213.946 24.1937 214.602 24.0088 215.326 24.0088C216.477 24.0088 217.365 24.376 217.99 25.1104C218.621 25.8448 218.936 26.8838 218.936 28.2276V28.9932H213.412C213.47 29.6911 213.701 30.2432 214.108 30.6494C214.519 31.0557 215.035 31.2588 215.655 31.2588C216.524 31.2588 217.233 30.9073 217.78 30.2041L218.803 31.1807C218.464 31.6859 218.011 32.0791 217.444 32.3604C216.881 32.6364 216.248 32.7744 215.545 32.7744ZM215.319 25.5323C214.798 25.5323 214.376 25.7145 214.053 26.0791C213.735 26.4437 213.532 26.9515 213.444 27.6026H217.061V27.4619C217.019 26.8265 216.85 26.3474 216.553 26.0244C216.256 25.6963 215.845 25.5323 215.319 25.5323Z" fill="#757575"/>
</g>
<defs>
<filter id="filter0_d" x="0.712646" y="0.478271" width="248.574" height="55.5652" filterUnits="userSpaceOnUse" color-interpolation-filters="sRGB">
<feFlood flood-opacity="0" result="BackgroundImageFix"/>
<feColorMatrix in="SourceAlpha" type="matrix" values="0 0 0 0 0 0 0 0 0 0 0 0 0 0 0 0 0 0 127 0"/>
<feOffset dy="1"/>
<feGaussianBlur stdDeviation="1.5"/>
<feColorMatrix type="matrix" values="0 0 0 0 0 0 0 0 0 0 0 0 0 0 0 0 0 0 0.35 0"/>
<feBlend mode="normal" in2="BackgroundImageFix" result="effect1_dropShadow"/>
<feBlend mode="normal" in="SourceGraphic" in2="effect1_dropShadow" result="shape"/>
</filter>
</defs>
</svg>
