<svg width="82" height="72" viewBox="0 0 82 72" fill="none" xmlns="http://www.w3.org/2000/svg">
<rect width="72" height="72" rx="36" fill="#765EA6" fill-opacity="0.2"/>
<path d="M45.8906 24.0469H26.1094C24.9463 24.0469 24 24.9931 24 26.1562V45.8438C24 47.0069 24.9463 47.9531 26.1094 47.9531H45.8906C47.0537 47.9531 48 47.0069 48 45.8438V26.1562C48 24.9931 47.0537 24.0469 45.8906 24.0469ZM26.1094 25.4531H45.8906C46.2783 25.4531 46.5938 25.7685 46.5938 26.1562V29.6719H25.4062V26.1562C25.4062 25.7685 25.7217 25.4531 26.1094 25.4531ZM45.8906 46.5469H26.1094C25.7217 46.5469 25.4062 46.2315 25.4062 45.8438V31.0781H46.5938V45.8438C46.5938 46.2315 46.2783 46.5469 45.8906 46.5469Z" fill="#755FA6"/>
<path d="M38.3866 33.2445C38.0296 33.0916 37.6163 33.2569 37.4633 33.6138L33.2445 43.4575C33.0915 43.8145 33.2569 44.2278 33.6138 44.3808C33.9709 44.5338 34.3842 44.3683 34.5371 44.0115L38.7558 34.1678C38.9088 33.8108 38.7435 33.3975 38.3866 33.2445Z" fill="#755FA6"/>
<path d="M32.3301 35.5608C32.0875 35.2575 31.6449 35.2084 31.3418 35.451L27.8262 38.2635C27.4747 38.5446 27.4745 39.0802 27.8262 39.3616L31.3418 42.1741C31.6451 42.4167 32.0876 42.3675 32.3301 42.0643C32.5727 41.7611 32.5236 41.3186 32.2203 41.076L29.391 38.8125L32.2203 36.5491C32.5236 36.3065 32.5727 35.864 32.3301 35.5608Z" fill="#755FA6"/>
<path d="M44.1736 38.2635L40.658 35.451C40.3548 35.2084 39.9123 35.2576 39.6697 35.5608C39.4272 35.864 39.4763 36.3065 39.7796 36.5491L42.6088 38.8125L39.7796 41.076C39.4763 41.3186 39.4272 41.761 39.6697 42.0643C39.9126 42.3678 40.3552 42.4164 40.658 42.174L44.1736 39.3615C44.5251 39.0804 44.5254 38.5448 44.1736 38.2635Z" fill="#755FA6"/>
<path d="M27.5625 28.2656C27.9508 28.2656 28.2656 27.9508 28.2656 27.5625C28.2656 27.1742 27.9508 26.8594 27.5625 26.8594C27.1742 26.8594 26.8594 27.1742 26.8594 27.5625C26.8594 27.9508 27.1742 28.2656 27.5625 28.2656Z" fill="#755FA6"/>
<path d="M30.375 28.2656C30.7633 28.2656 31.0781 27.9508 31.0781 27.5625C31.0781 27.1742 30.7633 26.8594 30.375 26.8594C29.9867 26.8594 29.6719 27.1742 29.6719 27.5625C29.6719 27.9508 29.9867 28.2656 30.375 28.2656Z" fill="#755FA6"/>
<path d="M33.1875 28.2656C33.5758 28.2656 33.8906 27.9508 33.8906 27.5625C33.8906 27.1742 33.5758 26.8594 33.1875 26.8594C32.7992 26.8594 32.4844 27.1742 32.4844 27.5625C32.4844 27.9508 32.7992 28.2656 33.1875 28.2656Z" fill="#755FA6"/>
<path d="M40.2188 28.2656H44.4375C44.8258 28.2656 45.1406 27.9508 45.1406 27.5625C45.1406 27.1742 44.8258 26.8594 44.4375 26.8594H40.2188C39.8304 26.8594 39.5156 27.1742 39.5156 27.5625C39.5156 27.9508 39.8304 28.2656 40.2188 28.2656Z" fill="#755FA6"/>
</svg>
