<svg width="72" height="72" viewBox="0 0 72 72" fill="none" xmlns="http://www.w3.org/2000/svg">
<rect width="72" height="72" rx="36" fill="#45BCC8" fill-opacity="0.2"/>
<path d="M45.6172 27.7954V25.2174C45.6172 23.8715 44.578 22.7826 43.293 22.7826C42.8917 22.7826 42.514 22.8897 42.1843 23.078C41.8821 22.1005 41.0051 21.3913 39.9727 21.3913C39.5714 21.3913 39.1937 21.4984 38.864 21.6867C38.5618 20.7092 37.6848 20 36.6523 20C36.0025 20 35.4145 20.2812 34.9922 20.7332C34.5699 20.2812 33.9818 20 33.332 20C32.0503 20 31.0078 21.0921 31.0078 22.4348V25.769C30.067 26.0614 29.2403 26.6565 28.6372 27.4864C26.756 27.7266 25.4133 27.963 24.5672 28.2038C23.5472 26.8076 21.7063 26.4399 20.2697 27.3076L16.3292 29.7185C16.1253 29.8432 16 30.072 16 30.3193C16 30.5666 16.1253 30.7951 16.3289 30.9201L20.2728 33.3337C21.6126 34.1429 23.3605 33.8864 24.4222 32.6177C25.2338 32.8606 26.5171 33.0962 28.3765 33.3443C28.5661 33.6674 28.7912 33.9663 29.0488 34.2359L31.3637 36.6609C31.9907 37.3177 32.3359 38.191 32.3359 39.1201V40.8696H32.0039C30.7222 40.8696 29.6797 41.9617 29.6797 43.3043C29.6797 44.2736 30.2234 45.1122 31.0078 45.5038V51.3043C31.0078 51.6886 31.3051 52 31.6719 52H44.9531C45.3199 52 45.6172 51.6886 45.6172 51.3043V45.5038C46.4016 45.1122 46.9453 44.2736 46.9453 43.3043C46.9453 41.9617 45.9028 40.8696 44.6211 40.8696H44.2891V38.9467C44.2891 38.0856 44.474 37.2182 44.8237 36.4389C45.3575 35.2503 45.6169 34.1633 45.6172 33.1166C48.5645 32.4856 50 31.6065 50 30.4348C50 28.8745 47.1572 28.1486 45.6172 27.7954ZM43.293 24.1739C43.8437 24.1739 44.2891 24.6402 44.2891 25.2174V28C44.2891 28.5834 43.8343 29.0435 43.293 29.0435C42.7438 29.0435 42.2969 28.5753 42.2969 28V25.2174C42.2969 24.6421 42.7438 24.1739 43.293 24.1739ZM39.9727 22.7826C40.5218 22.7826 40.9688 23.2508 40.9688 23.8261V27.3043C40.9688 27.8796 40.5218 28.3478 39.9727 28.3478C39.4243 28.3478 38.9766 27.8837 38.9766 27.3043V23.8261C38.9766 23.2508 39.4235 22.7826 39.9727 22.7826ZM36.6523 21.3913C37.2015 21.3913 37.6484 21.8595 37.6484 22.4348V25.8595C37.2874 25.6701 36.8806 25.5652 36.4531 25.5652H35.6562V22.4348C35.6562 21.8595 36.1032 21.3913 36.6523 21.3913ZM32.3359 22.4348C32.3359 21.8595 32.7829 21.3913 33.332 21.3913C33.8812 21.3913 34.3281 21.8595 34.3281 22.4348V25.5652H32.3359V22.4348ZM27.8019 31.8611C26.6273 31.6913 25.7233 31.5255 25.0974 31.366C25.1986 31.0296 25.251 30.6772 25.251 30.3193C25.251 30.0367 25.2178 29.7546 25.1532 29.4812C25.7845 29.3209 26.702 29.156 27.8974 28.988C27.7591 29.4535 27.6875 29.9402 27.6875 30.4348V30.7929C27.6875 31.1519 27.7267 31.5106 27.8019 31.8611ZM20.9397 32.1304L17.9805 30.3193L20.9364 28.5109C22.2539 27.7152 23.9228 28.7054 23.9228 30.3193C23.9228 31.9098 22.2686 32.9334 20.9397 32.1304ZM32.3027 35.6772L29.9879 33.2522C29.743 32.9957 29.5391 32.7024 29.3816 32.3807C29.1422 31.8908 29.0156 31.3418 29.0156 30.7932V30.4348C29.0156 28.537 30.4789 26.9565 32.3359 26.9565H36.4531C37.1719 26.9565 37.7812 27.5717 37.7812 28.3478C37.7812 29.1149 37.1854 29.7391 36.4531 29.7391H32.47C32.111 29.7391 31.8169 30.038 31.8062 30.4141C31.7956 30.7899 32.0721 31.1068 32.4306 31.1291C35.38 31.3139 36.8601 34.1293 36.1413 36.5457C36.0321 36.9125 36.2274 37.3024 36.5776 37.4168C36.9276 37.5312 37.3001 37.3264 37.409 36.9598C37.7073 35.9573 37.7218 34.8878 37.4809 33.9103C39.9026 33.8875 42.2704 33.6978 44.2818 33.3674C44.2426 34.1323 44.026 34.9462 43.6216 35.8467C43.1895 36.8106 42.9609 37.8826 42.9609 38.9467V40.8696H33.6641V39.1201C33.6641 37.8193 33.1805 36.5967 32.3027 35.6772ZM45.6172 43.3043C45.6172 43.8796 45.1702 44.3478 44.6211 44.3478H40.9688C40.602 44.3478 40.3047 44.6592 40.3047 45.0435C40.3047 45.4277 40.602 45.7391 40.9688 45.7391H44.2891V50.6087H32.3359V45.7391H35.6562C36.023 45.7391 36.3203 45.4277 36.3203 45.0435C36.3203 44.6592 36.023 44.3478 35.6562 44.3478H32.0039C31.4548 44.3478 31.0078 43.8796 31.0078 43.3043C31.0078 42.7291 31.4548 42.2609 32.0039 42.2609H44.6211C45.1702 42.2609 45.6172 42.7291 45.6172 43.3043ZM44.8309 31.8592C42.6113 32.2864 39.8245 32.5217 36.9844 32.5217C36.968 32.5217 36.9514 32.5215 36.9351 32.5215C36.644 31.9932 36.2773 31.5245 35.8508 31.1304H36.4531C37.5413 31.1304 38.478 30.4413 38.8881 29.4582C39.2144 29.6383 39.5843 29.7391 39.9727 29.7391C40.4749 29.7391 40.9402 29.5707 41.3208 29.2859C41.7316 29.975 42.4619 30.4348 43.293 30.4348C44.1607 30.4348 44.9402 29.9245 45.3381 29.1554C47.6504 29.6845 48.4815 30.2266 48.654 30.4497C48.4965 30.6891 47.5775 31.3315 44.8309 31.8592Z" fill="url(#paint0_linear)"/>
<path d="M45.6172 27.7954V25.2174C45.6172 23.8715 44.578 22.7826 43.293 22.7826C42.8917 22.7826 42.514 22.8897 42.1843 23.078C41.8821 22.1005 41.0051 21.3913 39.9727 21.3913C39.5714 21.3913 39.1937 21.4984 38.864 21.6867C38.5618 20.7092 37.6848 20 36.6523 20C36.0025 20 35.4145 20.2812 34.9922 20.7332C34.5699 20.2812 33.9818 20 33.332 20C32.0503 20 31.0078 21.0921 31.0078 22.4348V25.769C30.067 26.0614 29.2403 26.6565 28.6372 27.4864C26.756 27.7266 25.4133 27.963 24.5672 28.2038C23.5472 26.8076 21.7063 26.4399 20.2697 27.3076L16.3292 29.7185C16.1253 29.8432 16 30.072 16 30.3193C16 30.5666 16.1253 30.7951 16.3289 30.9201L20.2728 33.3337C21.6126 34.1429 23.3605 33.8864 24.4222 32.6177C25.2338 32.8606 26.5171 33.0962 28.3765 33.3443C28.5661 33.6674 28.7912 33.9663 29.0488 34.2359L31.3637 36.6609C31.9907 37.3177 32.3359 38.191 32.3359 39.1201V40.8696H32.0039C30.7222 40.8696 29.6797 41.9617 29.6797 43.3043C29.6797 44.2736 30.2234 45.1122 31.0078 45.5038V51.3043C31.0078 51.6886 31.3051 52 31.6719 52H44.9531C45.3199 52 45.6172 51.6886 45.6172 51.3043V45.5038C46.4016 45.1122 46.9453 44.2736 46.9453 43.3043C46.9453 41.9617 45.9028 40.8696 44.6211 40.8696H44.2891V38.9467C44.2891 38.0856 44.474 37.2182 44.8237 36.4389C45.3575 35.2503 45.6169 34.1633 45.6172 33.1166C48.5645 32.4856 50 31.6065 50 30.4348C50 28.8745 47.1572 28.1486 45.6172 27.7954ZM43.293 24.1739C43.8437 24.1739 44.2891 24.6402 44.2891 25.2174V28C44.2891 28.5834 43.8343 29.0435 43.293 29.0435C42.7438 29.0435 42.2969 28.5753 42.2969 28V25.2174C42.2969 24.6421 42.7438 24.1739 43.293 24.1739ZM39.9727 22.7826C40.5218 22.7826 40.9688 23.2508 40.9688 23.8261V27.3043C40.9688 27.8796 40.5218 28.3478 39.9727 28.3478C39.4243 28.3478 38.9766 27.8837 38.9766 27.3043V23.8261C38.9766 23.2508 39.4235 22.7826 39.9727 22.7826ZM36.6523 21.3913C37.2015 21.3913 37.6484 21.8595 37.6484 22.4348V25.8595C37.2874 25.6701 36.8806 25.5652 36.4531 25.5652H35.6562V22.4348C35.6562 21.8595 36.1032 21.3913 36.6523 21.3913ZM32.3359 22.4348C32.3359 21.8595 32.7829 21.3913 33.332 21.3913C33.8812 21.3913 34.3281 21.8595 34.3281 22.4348V25.5652H32.3359V22.4348ZM27.8019 31.8611C26.6273 31.6913 25.7233 31.5255 25.0974 31.366C25.1986 31.0296 25.251 30.6772 25.251 30.3193C25.251 30.0367 25.2178 29.7546 25.1532 29.4812C25.7845 29.3209 26.702 29.156 27.8974 28.988C27.7591 29.4535 27.6875 29.9402 27.6875 30.4348V30.7929C27.6875 31.1519 27.7267 31.5106 27.8019 31.8611ZM20.9397 32.1304L17.9805 30.3193L20.9364 28.5109C22.2539 27.7152 23.9228 28.7054 23.9228 30.3193C23.9228 31.9098 22.2686 32.9334 20.9397 32.1304ZM32.3027 35.6772L29.9879 33.2522C29.743 32.9957 29.5391 32.7024 29.3816 32.3807C29.1422 31.8908 29.0156 31.3418 29.0156 30.7932V30.4348C29.0156 28.537 30.4789 26.9565 32.3359 26.9565H36.4531C37.1719 26.9565 37.7812 27.5717 37.7812 28.3478C37.7812 29.1149 37.1854 29.7391 36.4531 29.7391H32.47C32.111 29.7391 31.8169 30.038 31.8062 30.4141C31.7956 30.7899 32.0721 31.1068 32.4306 31.1291C35.38 31.3139 36.8601 34.1293 36.1413 36.5457C36.0321 36.9125 36.2274 37.3024 36.5776 37.4168C36.9276 37.5312 37.3001 37.3264 37.409 36.9598C37.7073 35.9573 37.7218 34.8878 37.4809 33.9103C39.9026 33.8875 42.2704 33.6978 44.2818 33.3674C44.2426 34.1323 44.026 34.9462 43.6216 35.8467C43.1895 36.8106 42.9609 37.8826 42.9609 38.9467V40.8696H33.6641V39.1201C33.6641 37.8193 33.1805 36.5967 32.3027 35.6772ZM45.6172 43.3043C45.6172 43.8796 45.1702 44.3478 44.6211 44.3478H40.9688C40.602 44.3478 40.3047 44.6592 40.3047 45.0435C40.3047 45.4277 40.602 45.7391 40.9688 45.7391H44.2891V50.6087H32.3359V45.7391H35.6562C36.023 45.7391 36.3203 45.4277 36.3203 45.0435C36.3203 44.6592 36.023 44.3478 35.6562 44.3478H32.0039C31.4548 44.3478 31.0078 43.8796 31.0078 43.3043C31.0078 42.7291 31.4548 42.2609 32.0039 42.2609H44.6211C45.1702 42.2609 45.6172 42.7291 45.6172 43.3043ZM44.8309 31.8592C42.6113 32.2864 39.8245 32.5217 36.9844 32.5217C36.968 32.5217 36.9514 32.5215 36.9351 32.5215C36.644 31.9932 36.2773 31.5245 35.8508 31.1304H36.4531C37.5413 31.1304 38.478 30.4413 38.8881 29.4582C39.2144 29.6383 39.5843 29.7391 39.9727 29.7391C40.4749 29.7391 40.9402 29.5707 41.3208 29.2859C41.7316 29.975 42.4619 30.4348 43.293 30.4348C44.1607 30.4348 44.9402 29.9245 45.3381 29.1554C47.6504 29.6845 48.4815 30.2266 48.654 30.4497C48.4965 30.6891 47.5775 31.3315 44.8309 31.8592Z" fill="#FCCE37"/>
<path d="M45.6172 27.7954V25.2174C45.6172 23.8715 44.578 22.7826 43.293 22.7826C42.8917 22.7826 42.514 22.8897 42.1843 23.078C41.8821 22.1005 41.0051 21.3913 39.9727 21.3913C39.5714 21.3913 39.1937 21.4984 38.864 21.6867C38.5618 20.7092 37.6848 20 36.6523 20C36.0025 20 35.4145 20.2812 34.9922 20.7332C34.5699 20.2812 33.9818 20 33.332 20C32.0503 20 31.0078 21.0921 31.0078 22.4348V25.769C30.067 26.0614 29.2403 26.6565 28.6372 27.4864C26.756 27.7266 25.4133 27.963 24.5672 28.2038C23.5472 26.8076 21.7063 26.4399 20.2697 27.3076L16.3292 29.7185C16.1253 29.8432 16 30.072 16 30.3193C16 30.5666 16.1253 30.7951 16.3289 30.9201L20.2728 33.3337C21.6126 34.1429 23.3605 33.8864 24.4222 32.6177C25.2338 32.8606 26.5171 33.0962 28.3765 33.3443C28.5661 33.6674 28.7912 33.9663 29.0488 34.2359L31.3637 36.6609C31.9907 37.3177 32.3359 38.191 32.3359 39.1201V40.8696H32.0039C30.7222 40.8696 29.6797 41.9617 29.6797 43.3043C29.6797 44.2736 30.2234 45.1122 31.0078 45.5038V51.3043C31.0078 51.6886 31.3051 52 31.6719 52H44.9531C45.3199 52 45.6172 51.6886 45.6172 51.3043V45.5038C46.4016 45.1122 46.9453 44.2736 46.9453 43.3043C46.9453 41.9617 45.9028 40.8696 44.6211 40.8696H44.2891V38.9467C44.2891 38.0856 44.474 37.2182 44.8237 36.4389C45.3575 35.2503 45.6169 34.1633 45.6172 33.1166C48.5645 32.4856 50 31.6065 50 30.4348C50 28.8745 47.1572 28.1486 45.6172 27.7954ZM43.293 24.1739C43.8437 24.1739 44.2891 24.6402 44.2891 25.2174V28C44.2891 28.5834 43.8343 29.0435 43.293 29.0435C42.7438 29.0435 42.2969 28.5753 42.2969 28V25.2174C42.2969 24.6421 42.7438 24.1739 43.293 24.1739ZM39.9727 22.7826C40.5218 22.7826 40.9688 23.2508 40.9688 23.8261V27.3043C40.9688 27.8796 40.5218 28.3478 39.9727 28.3478C39.4243 28.3478 38.9766 27.8837 38.9766 27.3043V23.8261C38.9766 23.2508 39.4235 22.7826 39.9727 22.7826ZM36.6523 21.3913C37.2015 21.3913 37.6484 21.8595 37.6484 22.4348V25.8595C37.2874 25.6701 36.8806 25.5652 36.4531 25.5652H35.6562V22.4348C35.6562 21.8595 36.1032 21.3913 36.6523 21.3913ZM32.3359 22.4348C32.3359 21.8595 32.7829 21.3913 33.332 21.3913C33.8812 21.3913 34.3281 21.8595 34.3281 22.4348V25.5652H32.3359V22.4348ZM27.8019 31.8611C26.6273 31.6913 25.7233 31.5255 25.0974 31.366C25.1986 31.0296 25.251 30.6772 25.251 30.3193C25.251 30.0367 25.2178 29.7546 25.1532 29.4812C25.7845 29.3209 26.702 29.156 27.8974 28.988C27.7591 29.4535 27.6875 29.9402 27.6875 30.4348V30.7929C27.6875 31.1519 27.7267 31.5106 27.8019 31.8611ZM20.9397 32.1304L17.9805 30.3193L20.9364 28.5109C22.2539 27.7152 23.9228 28.7054 23.9228 30.3193C23.9228 31.9098 22.2686 32.9334 20.9397 32.1304ZM32.3027 35.6772L29.9879 33.2522C29.743 32.9957 29.5391 32.7024 29.3816 32.3807C29.1422 31.8908 29.0156 31.3418 29.0156 30.7932V30.4348C29.0156 28.537 30.4789 26.9565 32.3359 26.9565H36.4531C37.1719 26.9565 37.7812 27.5717 37.7812 28.3478C37.7812 29.1149 37.1854 29.7391 36.4531 29.7391H32.47C32.111 29.7391 31.8169 30.038 31.8062 30.4141C31.7956 30.7899 32.0721 31.1068 32.4306 31.1291C35.38 31.3139 36.8601 34.1293 36.1413 36.5457C36.0321 36.9125 36.2274 37.3024 36.5776 37.4168C36.9276 37.5312 37.3001 37.3264 37.409 36.9598C37.7073 35.9573 37.7218 34.8878 37.4809 33.9103C39.9026 33.8875 42.2704 33.6978 44.2818 33.3674C44.2426 34.1323 44.026 34.9462 43.6216 35.8467C43.1895 36.8106 42.9609 37.8826 42.9609 38.9467V40.8696H33.6641V39.1201C33.6641 37.8193 33.1805 36.5967 32.3027 35.6772ZM45.6172 43.3043C45.6172 43.8796 45.1702 44.3478 44.6211 44.3478H40.9688C40.602 44.3478 40.3047 44.6592 40.3047 45.0435C40.3047 45.4277 40.602 45.7391 40.9688 45.7391H44.2891V50.6087H32.3359V45.7391H35.6562C36.023 45.7391 36.3203 45.4277 36.3203 45.0435C36.3203 44.6592 36.023 44.3478 35.6562 44.3478H32.0039C31.4548 44.3478 31.0078 43.8796 31.0078 43.3043C31.0078 42.7291 31.4548 42.2609 32.0039 42.2609H44.6211C45.1702 42.2609 45.6172 42.7291 45.6172 43.3043ZM44.8309 31.8592C42.6113 32.2864 39.8245 32.5217 36.9844 32.5217C36.968 32.5217 36.9514 32.5215 36.9351 32.5215C36.644 31.9932 36.2773 31.5245 35.8508 31.1304H36.4531C37.5413 31.1304 38.478 30.4413 38.8881 29.4582C39.2144 29.6383 39.5843 29.7391 39.9727 29.7391C40.4749 29.7391 40.9402 29.5707 41.3208 29.2859C41.7316 29.975 42.4619 30.4348 43.293 30.4348C44.1607 30.4348 44.9402 29.9245 45.3381 29.1554C47.6504 29.6845 48.4815 30.2266 48.654 30.4497C48.4965 30.6891 47.5775 31.3315 44.8309 31.8592Z" fill="#47BCC8"/>
<defs>
<linearGradient id="paint0_linear" x1="16" y1="36" x2="50" y2="36" gradientUnits="userSpaceOnUse">
<stop stop-color="#755FA6"/>
<stop offset="1" stop-color="#47BCC8"/>
</linearGradient>
</defs>
</svg>
