<svg width="32" height="32" viewBox="0 0 32 32" fill="none" xmlns="http://www.w3.org/2000/svg">
<path fill-rule="evenodd" clip-rule="evenodd" d="M7.22735 27.2641C7.57935 27.897 8.26602 28.2924 9.01268 28.2911C9.32735 28.2924 9.63935 28.2218 9.91935 28.0857L15.9887 25.0303C16.0047 25.0213 16.0233 25.0161 16.042 25.0174L22.07 28.0472C22.362 28.1987 22.6887 28.277 23.0194 28.2757C23.1247 28.2757 23.2313 28.2667 23.3354 28.2526C24.4207 28.0819 25.162 27.1036 25.002 26.0573L23.8287 19.6255C23.8219 19.6161 23.82 19.6156 23.8195 19.6145C23.8193 19.6141 23.8193 19.6137 23.8193 19.6126C23.8193 19.6088 23.8287 19.5998 23.8287 19.5998L28.722 15.0423C29.4447 14.3709 29.5367 13.2886 28.9353 12.5132C28.6087 12.1075 28.13 11.8405 27.602 11.7686L20.8527 10.8314C20.8407 10.8314 20.8273 10.8186 20.814 10.8058L17.7993 4.97732C17.4593 4.31873 16.7633 3.90278 15.9993 3.89893C15.778 3.89893 15.5567 3.9323 15.346 4.00163C14.8407 4.16724 14.4233 4.51643 14.186 4.97732L11.1753 10.7891C11.1753 10.816 11.1473 10.8276 11.1207 10.8276L4.38735 11.7648C3.97535 11.8315 3.59135 12.0087 3.28068 12.2783C2.88735 12.6493 2.66602 13.159 2.66602 13.6905C2.66735 14.195 2.87802 14.6777 3.25268 15.0295L8.18602 19.5998C8.19668 19.6101 8.20068 19.6242 8.20068 19.6383L7.01268 26.0445C6.94202 26.463 7.01802 26.8918 7.22735 27.2641ZM15.9607 5.78225L15.974 5.77327H15.9993L16.0113 5.78482C16.0233 5.78482 16.034 5.78739 16.0433 5.79509C16.0513 5.80279 16.0553 5.81306 16.054 5.82462L19.0673 11.6261C19.3567 12.1974 19.9193 12.5954 20.5727 12.6917L27.322 13.6365C27.334 13.6365 27.346 13.6391 27.3567 13.6442C27.3633 13.6455 27.3687 13.6455 27.3753 13.6442L27.3887 13.6558L27.3753 13.684L22.482 18.2531C21.9953 18.6921 21.778 19.3417 21.9073 19.9721L23.082 26.3667L23.0553 26.3911H23.0273C23.022 26.3937 23.0167 26.3937 23.0113 26.3911C22.998 26.3898 22.9847 26.3847 22.9727 26.3782H22.9607L16.9607 23.3613C16.6727 23.2175 16.3527 23.1405 16.0273 23.1418C15.6927 23.1418 15.362 23.2227 15.066 23.3742L9.02733 26.4232C9.02066 26.4245 9.01266 26.4245 9.00599 26.4232C8.97799 26.4232 8.95399 26.4052 8.94733 26.3795V26.3539L10.1207 19.9605C10.23 19.3353 10.0167 18.6973 9.54733 18.2531L4.61399 13.6956C4.61266 13.6763 4.61533 13.6596 4.62599 13.643L4.70733 13.6173L11.414 12.6917C12.0673 12.5941 12.6287 12.1974 12.9193 11.6261L15.934 5.8105C15.9407 5.79894 15.9487 5.78867 15.9607 5.78225Z" fill="#FCCE36"/>
</svg>
